STARTFONT 2.1
FONT -Monotype-Century Schoolbook-Bold-R-Normal--50-360-100-100-P-292-iso8859-2
SIZE 36 100 100
FONTBOUNDINGBOX 62 62 -10 -12

STARTPROPERTIES 24
FOUNDRY "Monotype"
FAMILY_NAME "Century Schoolbook"
WEIGHT_NAME "Bold"
SLANT "R"
SETWIDTH_NAME "Normal"
ADD_STYLE_NAME ""
PIXEL_SIZE 50
POINT_SIZE 360
RESOLUTION_X 100
RESOLUTION_Y 100
SPACING "P"
AVERAGE_WIDTH 292
CHARSET_REGISTRY "iso8859"
CHARSET_ENCODING "2"
FACE_NAME "Century Schoolbook Bold ISO Latin2"
_DEC_DEVICE_FONTNAMES "PS=centuryschoolbook-b-lat2"
COPYRIGHT "Copyright (c) 1993 Monotype Typography Ltd."
CAP_HEIGHT 47
X_HEIGHT 30
WEIGHT 10
QUAD_WIDTH 30
DEFAULT_CHAR 160
FONT_DESCENT 14
FONT_ASCENT 52
ENDPROPERTIES

CHARS 191

STARTCHAR space
ENCODING 32
SWIDTH 287 0
DWIDTH 14 0
BBX 0 0 0 0
BITMAP
ENDCHAR

STARTCHAR exclam
ENCODING 33
SWIDTH 296 0
DWIDTH 15 0
BBX 12 38 2 -1
BITMAP
0F00
1F80
3FC0
3FC0
3FC0
3FC0
3FC0
3FC0
3FC0
1FC0
1F80
1F80
1F80
1F80
0F00
0F00
0F00
0F00
0F00
0600
0600
0600
0600
0600
0600
0600
0000
0000
0000
0600
1F80
3FC0
3FC0
3FC0
3FC0
3FC0
1F80
0600
ENDCHAR

STARTCHAR quotedbl
ENCODING 34
SWIDTH 333 0
DWIDTH 17 0
BBX 19 17 -1 18
BITMAP
1C0700
3E0F80
7F1FC0
7F1FC0
7F1FC0
7F1FC0
7F1FC0
3E0F80
3E0F80
3E0F80
3E0F80
1C0700
1C0700
1C0700
1C0700
080200
080200
ENDCHAR

STARTCHAR numbersign
ENCODING 35
SWIDTH 574 0
DWIDTH 29 0
BBX 31 36 -2 0
BITMAP
001E01E0
001E03E0
001E03C0
001E03C0
003C03C0
003C03C0
003C0780
003C0780
003C0780
00780780
7FFFFFF8
7FFFFFF8
7FFFFFF8
7FFFFFF8
00F00F00
00F00F00
00F01E00
00F01E00
00F01E00
01E01E00
01E01E00
01E03C00
7FFFFFF8
7FFFFFF8
7FFFFFF8
7FFFFFF8
03C07800
03C07800
07C07800
07807800
07807800
0780F000
0780F000
0F00F000
0F00F000
0F01E000
ENDCHAR

STARTCHAR dollar
ENCODING 36
SWIDTH 574 0
DWIDTH 29 0
BBX 25 44 2 -7
BITMAP
001C0000
001C0000
003F0000
01FFE000
03FDF000
0F1C7800
0E1C3C00
1C1C7E00
1C1C7E00
3C1CFE00
3C1CFE00
3C1CFC00
3E1C7C00
3F1C1000
3F9C0000
1FFC0000
1FFC0000
0FFF0000
07FFC000
03FFE000
01FFF800
007FFC00
001FFC00
001FFE00
001CFE00
001C7F00
1F1C3F00
3F9C1F00
3F9C1F00
3F9C1F00
3F9C1E00
3F1C1E00
3E1C1C00
1E1C3C00
0E1CF800
07FFE000
03FFC000
003C0000
001C0000
001C0000
001C0000
001C0000
001C0000
001C0000
ENDCHAR

STARTCHAR percent
ENCODING 37
SWIDTH 833 0
DWIDTH 42 0
BBX 37 35 2 -1
BITMAP
07E0000000
0E70000600
1C38000C00
3C3C001800
3C3C001800
3C3E003000
7C3E006000
7C3E00C000
7C3E00C000
7C3E018000
7C3E030000
3C3E030000
3C3C060000
3C3C0C0000
1C38180000
0E70180000
07E0300000
0000603F00
0000407380
0000C0F1C0
000181E1E0
000301E1E0
000301E1E0
000603E1F0
000C03E1F0
000803E1F0
001803E1F0
003003E1F0
006003E1F0
006001E1E0
00C001E1E0
018001E1E0
010000F1C0
0300007380
0000003F00
ENDCHAR

STARTCHAR ampersand
ENCODING 38
SWIDTH 852 0
DWIDTH 43 0
BBX 41 38 1 -1
BITMAP
0003FC000000
000FFF000000
001F0FC00000
003E07C00000
007C07E00000
007C03E00000
00FC03E00000
00FC03E00000
00FC03E00000
00FE03C00000
00FE07C00000
00FF0F800000
007F1F000000
007FBC000000
003FF8000000
003FE0000000
001FC07FFE00
007FE07FFE00
01FFF03FFE00
03EFF007E000
0FC7F803C000
0F87F8038000
1F83FC038000
3F01FE070000
3F01FF070000
7F00FF0E0000
7F007F8C0000
7F807FDC0000
7F803FF80700
7F801FF80600
7FC00FF80600
3FE00FFC0600
3FF007FE0E00
1FFC1FFFFE00
0FFFFFFFFC00
07FFF87FF800
03FFE03FF000
007F0007C000
ENDCHAR

STARTCHAR quoteright
ENCODING 39
SWIDTH 241 0
DWIDTH 12 0
BBX 12 16 0 21
BITMAP
1F00
3F80
3FC0
7FC0
7FE0
3FE0
3FE0
1FE0
01C0
01C0
01C0
0380
0700
0E00
1C00
3800
ENDCHAR

STARTCHAR parenleft
ENCODING 40
SWIDTH 389 0
DWIDTH 19 0
BBX 18 46 2 -9
BITMAP
000100
000700
000E00
001C00
003C00
007800
00F000
01F000
03E000
03E000
07E000
0FC000
0FC000
1FC000
1FC000
3F8000
3F8000
3F8000
3F8000
3F8000
7F8000
7F8000
7F8000
7F8000
7F8000
7F8000
7F8000
3F8000
3F8000
3F8000
3F8000
1FC000
1FC000
0FC000
0FC000
07E000
03E000
03E000
01F000
00F000
007800
003C00
001C00
000E00
000700
000100
ENDCHAR

STARTCHAR parenright
ENCODING 41
SWIDTH 389 0
DWIDTH 19 0
BBX 18 45 -1 -9
BITMAP
380000
1C0000
0E0000
070000
078000
03C000
03E000
01F000
01F800
00F800
00FC00
00FC00
00FE00
007E00
007F00
007F00
007F00
007F00
007F80
007F80
007F80
007F80
007F80
007F80
007F80
007F80
007F00
007F00
007F00
007F00
007E00
00FE00
00FC00
00FC00
00F800
01F800
01F000
03E000
03C000
078000
0F0000
0E0000
1C0000
380000
200000
ENDCHAR

STARTCHAR asterisk
ENCODING 42
SWIDTH 500 0
DWIDTH 25 0
BBX 27 22 -1 15
BITMAP
000F0000
001F0000
003F8000
003F8000
003F8000
001F0000
1E1F0F00
3F0E1F80
3F8E3F80
3FC47F80
3FF4FF80
1FFFFF00
000E0000
001B0000
007BC000
00FBF000
03F9F800
03F1F800
07F1FC00
07F1FC00
03E0F800
01E0F000
ENDCHAR

STARTCHAR plus
ENCODING 43
SWIDTH 606 0
DWIDTH 30 0
BBX 31 27 0 3
BITMAP
0007C000
0007C000
0007C000
0007C000
0007C000
0007C000
0007C000
0007C000
0007C000
0007C000
0007C000
3FFFFFF8
3FFFFFF8
3FFFFFF8
3FFFFFF8
3FFFFFF8
0007C000
0007C000
0007C000
0007C000
0007C000
0007C000
0007C000
0007C000
0007C000
0007C000
0007C000
ENDCHAR

STARTCHAR comma
ENCODING 44
SWIDTH 278 0
DWIDTH 14 0
BBX 12 16 1 -8
BITMAP
1F00
3F80
3FC0
7FC0
7FE0
7FE0
3FE0
1FE0
01C0
01C0
01C0
0380
0300
0E00
1C00
3800
ENDCHAR

STARTCHAR minus
ENCODING 45
SWIDTH 606 0
DWIDTH 30 0
BBX 30 5 0 14
BITMAP
7FFFFFF8
7FFFFFF8
7FFFFFF8
7FFFFFF8
7FFFFFF8
ENDCHAR

STARTCHAR period
ENCODING 46
SWIDTH 278 0
DWIDTH 14 0
BBX 12 8 1 -1
BITMAP
0F00
1F80
3FC0
3FC0
3FC0
3FC0
1F80
0F00
ENDCHAR

STARTCHAR slash
ENCODING 47
SWIDTH 278 0
DWIDTH 14 0
BBX 18 36 -2 0
BITMAP
000F80
000F00
001F00
001F00
001E00
003E00
003E00
003C00
003C00
007C00
007C00
007800
00F800
00F800
00F000
01F000
01F000
01E000
01E000
03E000
03C000
03C000
07C000
07C000
078000
0F8000
0F8000
0F0000
1F0000
1F0000
1E0000
1E0000
3E0000
3C0000
3C0000
7C0000
ENDCHAR

STARTCHAR zero
ENCODING 48
SWIDTH 574 0
DWIDTH 29 0
BBX 26 35 1 -1
BITMAP
003F8000
00FFE000
03F1F000
07E1F800
07C0F800
0FC0FC00
0FC0FE00
1F807E00
1F807E00
3F807F00
3F807F00
3F807F00
3F807F00
3F807F80
7F807F80
7F807F80
7F807F80
7F807F80
7F807F80
7F807F80
7F807F80
3F807F80
3F807F00
3F807F00
3F807F00
3F807F00
1F807E00
1F807E00
0FC0FE00
0FC0FC00
07C0F800
03E1F800
03F3F000
00FFC000
007F8000
ENDCHAR

STARTCHAR one
ENCODING 49
SWIDTH 574 0
DWIDTH 29 0
BBX 23 34 3 0
BITMAP
000600
001E00
01FE00
3FFE00
3FFE00
01FE00
007E00
007E00
007E00
007E00
007E00
007E00
007E00
007E00
007E00
007E00
007E00
007E00
007E00
007E00
007E00
007E00
007E00
007E00
007E00
007E00
007E00
007E00
007E00
007E00
007E00
00FF00
1FFFFC
1FFFFC
ENDCHAR

STARTCHAR two
ENCODING 50
SWIDTH 574 0
DWIDTH 29 0
BBX 26 34 1 0
BITMAP
007FC000
01FFF000
03C7F800
0701FC00
0E00FE00
0C00FE00
1C00FF00
1E00FF00
1FC0FF00
1FE0FF00
1FE0FF00
1FE0FE00
0FE0FE00
0FC0FE00
0381FC00
0001F800
0003F800
0007F000
0007C000
000F8000
001F0000
003E0000
00780300
00700300
00E00700
01C00700
03800700
07000F00
0FFFFF00
0FFFFF00
1FFFFF00
3FFFFF00
3FFFFF00
3FFFFF00
ENDCHAR

STARTCHAR three
ENCODING 51
SWIDTH 574 0
DWIDTH 29 0
BBX 26 35 2 -1
BITMAP
00FF8000
03FFE000
0787F800
0E01FC00
0F01FC00
1F80FE00
1FC0FE00
1FC0FE00
1FC0FE00
0FC0FE00
0F80FE00
0000FC00
0001F800
0001F000
0007E000
00FF8000
01FFC000
00C7F000
0001FC00
0001FC00
0000FE00
0000FF00
1F007F00
3F007F00
3F807F00
7F807F00
7F807F00
7F007F00
7E00FF00
3C00FE00
3C01FE00
1E01FC00
0F8FF800
07FFF000
01FF8000
ENDCHAR

STARTCHAR four
ENCODING 52
SWIDTH 574 0
DWIDTH 29 0
BBX 27 34 1 0
BITMAP
00007000
00007000
0000F000
0001F000
0003F000
0003F000
0007F000
000FF000
001FF000
001FF000
003BF000
0073F000
0063F000
00E3F000
01C3F000
0383F000
0383F000
0703F000
0E03F000
1C03F000
1C03F000
3803F000
7003F000
7FFFFF80
7FFFFF80
7FFFFF80
0003F000
0003F000
0003F000
0003F000
0003F000
0007F800
007FFF00
007FFF00
ENDCHAR

STARTCHAR five
ENCODING 53
SWIDTH 574 0
DWIDTH 29 0
BBX 25 35 2 -1
BITMAP
06000800
07FFF800
07FFF800
07FFF800
0FFFF000
0FFFE000
0FFF8000
0C7C0000
0C000000
0C000000
0C000000
0C000000
0C3E0000
0DFFC000
0FFFF000
0F07F800
1C01FC00
1C01FC00
3800FE00
1800FE00
0000FE00
0000FF00
0000FF00
1F00FF00
3F80FF00
3F80FF00
3F80FE00
7F80FE00
3F00FE00
3C01FC00
3C01FC00
1C03F800
0F0FF000
07FFC000
01FF0000
ENDCHAR

STARTCHAR six
ENCODING 54
SWIDTH 574 0
DWIDTH 29 0
BBX 27 35 2 -1
BITMAP
000FF000
007FF800
00FC7E00
01F03E00
03E03F00
07E07F00
07C07F00
0FC07F00
0FC07E00
1FC03C00
1F800000
3F800000
3F800000
3F800000
3F87F000
3F9FF800
7FBFFE00
7FF1FE00
7FE07F00
7FC07F00
7FC07F80
7F803F80
7F803F80
3F803F80
3F803F80
3F803F80
3F803F80
1F803F80
1F803F00
0FC07F00
0FC07E00
07E0FC00
03F1F800
01FFF000
003FC000
ENDCHAR

STARTCHAR seven
ENCODING 55
SWIDTH 574 0
DWIDTH 29 0
BBX 26 36 2 -1
BITMAP
08000000
1FFFFF00
1FFFFF00
1FFFFF00
1FFFFF00
1FFFFE00
1FFFFE00
1C000C00
38001C00
38001800
38003800
30003800
30007000
0000F000
0000E000
0001E000
0001E000
0003E000
0003C000
0007C000
0007C000
000FC000
000FC000
001F8000
001F8000
003F8000
003F8000
003F8000
003F8000
007F8000
007F8000
007F8000
007F0000
007F0000
003E0000
001C0000
ENDCHAR

STARTCHAR eight
ENCODING 56
SWIDTH 574 0
DWIDTH 29 0
BBX 27 35 1 -1
BITMAP
003FC000
00FFF000
03E0FC00
07803C00
07803E00
0F001F00
0F001F00
1F001F00
1F001F00
1F801E00
1F801E00
1FE03C00
0FF87800
0FFEE000
07FFC000
03FFF000
01FFFC00
007FFE00
007FFF00
03E7FF80
0780FF80
0F803F80
1F001FC0
3F000FC0
3E0007C0
3E0007C0
3E0007C0
3E000780
3F000780
3F000780
1F800F00
0FC01E00
07E07C00
03FFF800
007FC000
ENDCHAR

STARTCHAR nine
ENCODING 57
SWIDTH 574 0
DWIDTH 29 0
BBX 26 35 2 -1
BITMAP
00FF8000
03FFE000
07E3F000
0FC0F800
1F80FC00
1F807E00
3F007E00
3F007E00
7F007F00
7F007F00
7F007F00
7F007F00
7F007F80
7F007F80
7F807F80
3F80FF80
3F81FF80
1FE3FF80
0FFF7F80
07FE7F80
01F87F00
00007F00
00007F00
00007F00
00007E00
0F00FE00
1F80FE00
3F80FC00
3F80F800
3F81F800
3F03F000
1F03E000
0F8FC000
07FF0000
01FC0000
ENDCHAR

STARTCHAR colon
ENCODING 58
SWIDTH 278 0
DWIDTH 14 0
BBX 12 25 1 -1
BITMAP
0F00
1F80
3FC0
3FC0
3FC0
3FC0
1F80
1F80
0000
0000
0000
0000
0000
0000
0000
0000
0000
0F80
1FC0
3FC0
3FC0
3FC0
3FC0
1F80
0F00
ENDCHAR

STARTCHAR semicolon
ENCODING 59
SWIDTH 278 0
DWIDTH 14 0
BBX 12 32 1 -8
BITMAP
0F00
1F80
3FC0
3FC0
3FC0
3FC0
1F80
0F00
0000
0000
0000
0000
0000
0000
0000
0000
1F00
3F80
3FC0
7FE0
7FE0
3FE0
3FE0
1FE0
01C0
01C0
01C0
0380
0700
0E00
1C00
3800
ENDCHAR

STARTCHAR less
ENCODING 60
SWIDTH 606 0
DWIDTH 30 0
BBX 30 27 0 3
BITMAP
00000018
00000078
000001F8
00000FF8
00003FF8
0001FFE0
0007FF80
001FFC00
00FFF000
03FF8000
1FFE0000
3FF00000
3FC00000
3F000000
3FE00000
3FF80000
0FFF0000
03FFC000
007FF000
001FFE00
0003FF80
0000FFF0
00003FF8
000007F8
000001F8
00000038
00000008
ENDCHAR

STARTCHAR equal
ENCODING 61
SWIDTH 606 0
DWIDTH 30 0
BBX 30 17 0 8
BITMAP
3FFFFFF8
3FFFFFF8
3FFFFFF8
3FFFFFF8
3FFFFFF8
00000000
00000000
00000000
00000000
00000000
00000000
00000000
3FFFFFF8
3FFFFFF8
3FFFFFF8
3FFFFFF8
3FFFFFF8
ENDCHAR

STARTCHAR greater
ENCODING 62
SWIDTH 606 0
DWIDTH 30 0
BBX 30 26 0 4
BITMAP
20000000
38000000
3F000000
3FC00000
3FF80000
1FFE0000
03FF8000
00FFF000
001FFC00
0007FF80
0001FFE0
00003FF8
00000FF8
000003F8
00000FF8
00007FF8
0001FFC0
000FFF00
003FFC00
01FFE000
07FF8000
3FFC0000
3FF00000
3FC00000
3E000000
38000000
ENDCHAR

STARTCHAR question
ENCODING 63
SWIDTH 500 0
DWIDTH 25 0
BBX 22 38 1 -1
BITMAP
01FE00
07FF80
0F1FC0
1C07E0
3C07F0
3C03F0
7F03F8
7F83F8
7F83F8
7F83F8
3F83F8
3F03F8
0E07F0
0007F0
000FE0
000FC0
001F80
001F00
003E00
003C00
003800
003000
007000
007000
006000
006000
006000
000000
000000
000000
00F000
01F800
03FC00
03FC00
03FC00
03FC00
01F800
00F000
ENDCHAR

STARTCHAR at
ENCODING 64
SWIDTH 747 0
DWIDTH 37 0
BBX 40 38 -1 -1
BITMAP
0000FFE000
0007E03C00
001E000600
0038000380
00700000C0
01C0000060
0180000020
0380000030
0700000010
06003E3C10
0E00F2F818
0C01E3F808
1C03E1F808
1803C1F008
180781F008
380F83F008
300F83E008
301F03E008
301F03E018
301F07E010
303F07C010
303E0FC030
303E0FC020
303E1F8040
303E2F80C0
183FEF8180
183FCF8306
181F87CC04
0C1F03F008
0C00000008
0600000010
0300000020
0180000040
01C0000180
0060000300
0038000C00
000F00F000
0001FF8000
ENDCHAR

STARTCHAR A
ENCODING 65
SWIDTH 759 0
DWIDTH 38 0
BBX 42 37 -2 0
BITMAP
00001E000000
00001E000000
00001F000000
00003F000000
00003F000000
00007F800000
00007F800000
0000FFC00000
0000FFC00000
0000DFC00000
0001DFE00000
00019FE00000
00038FF00000
00038FF00000
000307F00000
000707F80000
000603F80000
000E03FC0000
000C03FC0000
001C01FE0000
001C01FE0000
001800FE0000
003800FF0000
003FFFFF0000
007FFFFF8000
0070007F8000
0060003F8000
00E0003FC000
00C0003FC000
01C0001FE000
01C0001FE000
03C0000FF000
03C0000FF000
07C0000FF000
0FF0001FFC00
7FFE01FFFF00
7FFE01FFFF00
ENDCHAR

STARTCHAR B
ENCODING 66
SWIDTH 778 0
DWIDTH 39 0
BBX 39 36 0 0
BITMAP
3FFFFFF000
3FFFFFFE00
01FF01FF00
01FE007F80
01FE003FC0
01FE003FE0
01FE001FE0
01FE001FE0
01FE001FE0
01FE001FE0
01FE001FE0
01FE001FC0
01FE003FC0
01FE003F80
01FE007E00
01FE01F800
01FFFFC000
01FFFFF800
01FE01FF00
01FE003F80
01FE001FE0
01FE000FF0
01FE000FF0
01FE000FF8
01FE0007F8
01FE0007F8
01FE0007F8
01FE0007F8
01FE0007F8
01FE000FF8
01FE000FF0
01FE001FF0
01FE003FE0
03FF00FF80
3FFFFFFF00
3FFFFFF800
ENDCHAR

STARTCHAR C
ENCODING 67
SWIDTH 778 0
DWIDTH 39 0
BBX 35 38 3 -1
BITMAP
0003FE0300
001FFF8700
007F83E700
00FE00FF00
01FC007F00
03F8003F00
07F0001F00
0FF0000F00
0FE0000F00
1FE0000700
1FE0000700
3FE0000700
3FC0000300
3FC0000300
3FC0000000
7FC0000000
7FC0000000
7FC0000000
7FC0000000
7FC0000000
7FC0000000
7FC0000000
7FC0000000
3FC0000000
3FC0000180
3FE0000180
3FE0000380
1FE0000300
1FE0000300
0FF0000700
0FF0000600
07F8000E00
03FC001C00
01FE003800
00FF80F000
003FFFE000
000FFF8000
0001FC0000
ENDCHAR

STARTCHAR D
ENCODING 68
SWIDTH 833 0
DWIDTH 42 0
BBX 40 36 0 0
BITMAP
3FFFFFC000
3FFFFFF800
03FF03FE00
01FE007F00
01FE003FC0
01FE001FE0
01FE000FE0
01FE0007F0
01FE0007F8
01FE0007F8
01FE0003FC
01FE0003FC
01FE0003FC
01FE0003FC
01FE0003FE
01FE0003FE
01FE0003FE
01FE0003FE
01FE0003FE
01FE0003FE
01FE0003FE
01FE0003FE
01FE0003FC
01FE0003FC
01FE0003FC
01FE0003FC
01FE0007F8
01FE0007F8
01FE0007F0
01FE000FE0
01FE001FE0
01FE001FC0
01FE007F80
03FF01FE00
3FFFFFF800
3FFFFFE000
ENDCHAR

STARTCHAR E
ENCODING 69
SWIDTH 759 0
DWIDTH 38 0
BBX 37 36 0 0
BITMAP
3FFFFFFF80
3FFFFFFF80
03FF007F80
01FE001F80
01FE000F80
01FE000780
01FE0003C0
01FE0003C0
01FE0001C0
01FE0001C0
01FE0181C0
01FE0181C0
01FE0180C0
01FE038000
01FE038000
01FE078000
01FE1F8000
01FFFF8000
01FFFF8000
01FE1F8000
01FE078000
01FE038000
01FE038000
01FE018060
01FE018060
01FE0180E0
01FE0000E0
01FE0000E0
01FE0001E0
01FE0001E0
01FE0003E0
01FE0007E0
01FE001FE0
03FF007FE0
3FFFFFFFE0
3FFFFFFFC0
ENDCHAR

STARTCHAR F
ENCODING 70
SWIDTH 722 0
DWIDTH 36 0
BBX 35 36 1 0
BITMAP
3FFFFFFFC0
3FFFFFFFC0
03FF003FC0
01FE000FC0
01FE0007C0
01FE0003C0
01FE0003C0
01FE0001C0
01FE0001C0
01FE00C1C0
01FE01C1C0
01FE01C0C0
01FE01C000
01FE03C000
01FE07C000
01FE1FC000
01FFFFC000
01FFFFC000
01FE0FC000
01FE07C000
01FE03C000
01FE01C000
01FE01C000
01FE01C000
01FE01C000
01FE00C000
01FE000000
01FE000000
01FE000000
01FE000000
01FE000000
01FE000000
01FE000000
03FF000000
3FFFF80000
3FFFF80000
ENDCHAR

STARTCHAR G
ENCODING 71
SWIDTH 833 0
DWIDTH 42 0
BBX 40 38 2 -1
BITMAP
0003FE0300
000FFF8700
003F83E700
00FE00FF00
01FC007F00
03F8003F00
07F0001F00
07F0000F00
0FE0000F00
1FE0000780
1FE0000780
1FC0000380
3FC0000380
3FC0000380
3FC0000180
3FC0000000
7FC0000000
7FC0000000
7FC0000000
7FC0000000
7FC0000000
7FC007FFFE
7FC007FFFE
7FC0003FE0
3FC0001FC0
3FC0001FC0
3FC0001FC0
1FC0001FC0
1FE0001FC0
1FE0001FC0
0FE0001FC0
07F0003FC0
03F0003FC0
03F80073C0
00FC00E3C0
007F03C1C0
001FFF80C0
0007FE00C0
ENDCHAR

STARTCHAR H
ENCODING 72
SWIDTH 870 0
DWIDTH 44 0
BBX 41 36 1 0
BITMAP
3FFFC1FFFE00
3FFFC1FFFE00
07FC003FF000
03FC001FE000
03FC001FE000
03FC001FE000
03FC001FE000
03FC001FE000
03FC001FE000
03FC001FE000
03FC001FE000
03FC001FE000
03FC001FE000
03FC001FE000
03FC001FE000
03FC001FE000
03FFFFFFE000
03FFFFFFE000
03FFFFFFE000
03FC001FE000
03FC001FE000
03FC001FE000
03FC001FE000
03FC001FE000
03FC001FE000
03FC001FE000
03FC001FE000
03FC001FE000
03FC001FE000
03FC001FE000
03FC001FE000
03FC001FE000
03FC001FE000
03FC001FF000
3FFFC1FFFE00
3FFFC1FFFE00
ENDCHAR

STARTCHAR I
ENCODING 73
SWIDTH 444 0
DWIDTH 22 0
BBX 22 36 0 0
BITMAP
3FFFF0
3FFFF0
03FE00
01FE00
01FE00
01FE00
01FE00
01FE00
01FE00
01FE00
01FE00
01FE00
01FE00
01FE00
01FE00
01FE00
01FE00
01FE00
01FE00
01FE00
01FE00
01FE00
01FE00
01FE00
01FE00
01FE00
01FE00
01FE00
01FE00
01FE00
01FE00
01FE00
01FE00
03FF00
3FFFF0
3FFFF0
ENDCHAR

STARTCHAR J
ENCODING 74
SWIDTH 648 0
DWIDTH 32 0
BBX 31 37 1 -1
BITMAP
000FFFF8
000FFFF8
0000FFC0
00007F80
00007F80
00007F80
00007F80
00007F80
00007F80
00007F80
00007F80
00007F80
00007F80
00007F80
00007F80
00007F80
00007F80
00007F80
00007F80
00007F80
00007F80
07007F80
1FC07F80
3FE07F80
3FE07F80
7FE07F80
7FE07F80
7FE07F80
7FE07F80
7FC07F00
38007F00
3800FF00
1C00FE00
1E01FC00
0F87F800
03FFF000
00FFC000
ENDCHAR

STARTCHAR K
ENCODING 75
SWIDTH 815 0
DWIDTH 41 0
BBX 41 36 1 0
BITMAP
7FFFE1FFFC00
7FFFE1FFFC00
07FE003FC000
03FC001F8000
03FC001E0000
03FC003C0000
03FC00380000
03FC00700000
03FC00E00000
03FC01C00000
03FC03C00000
03FC07800000
03FC0F000000
03FC0F000000
03FC1F000000
03FC3F800000
03FC7FC00000
03FCFFC00000
03FDFFE00000
03FFDFE00000
03FF8FF00000
03FF0FF00000
03FE07F80000
03FC07FC0000
03FC03FC0000
03FC03FE0000
03FC01FE0000
03FC00FF0000
03FC00FF0000
03FC007F8000
03FC007FC000
03FC003FC000
03FC003FE000
07FE003FF800
7FFFE3FFFF00
7FFFE3FFFF00
ENDCHAR

STARTCHAR L
ENCODING 76
SWIDTH 722 0
DWIDTH 36 0
BBX 36 36 0 0
BITMAP
3FFFF00000
3FFFF00000
03FF000000
01FE000000
01FE000000
01FE000000
01FE000000
01FE000000
01FE000000
01FE000000
01FE000000
01FE000000
01FE000000
01FE000000
01FE000000
01FE000000
01FE000000
01FE000000
01FE000000
01FE000000
01FE000000
01FE000000
01FE0000C0
01FE0000C0
01FE0000C0
01FE0001C0
01FE0001C0
01FE0001C0
01FE0003C0
01FE0003C0
01FE0007C0
01FE000FC0
01FE001FC0
03FF007FC0
3FFFFFFFC0
3FFFFFFFC0
ENDCHAR

STARTCHAR M
ENCODING 77
SWIDTH 981 0
DWIDTH 49 0
BBX 49 36 0 0
BITMAP
7FFF0000FFFE00
7FFF8000FFFE00
03FF8001FFC000
01BF8001FFC000
01BFC001BFC000
01BFC003BFC000
019FC003BFC000
019FE0033FC000
019FE0073FC000
018FE0073FC000
018FF0063FC000
018FF00E3FC000
0187F00E3FC000
0187F80C3FC000
0187F81C3FC000
0183F81C3FC000
0183FC183FC000
0183FC383FC000
0181FC383FC000
0181FE303FC000
0181FE703FC000
0180FE703FC000
0180FF603FC000
0180FFE03FC000
01807FE03FC000
01807FC03FC000
01807FC03FC000
01803FC03FC000
01803F803FC000
01803F803FC000
03C01F803FC000
03C01F003FC000
07E01F003FC000
1FF80F007FE000
7FFE0E07FFFE00
7FFE0E07FFFE00
ENDCHAR

STARTCHAR N
ENCODING 78
SWIDTH 833 0
DWIDTH 42 0
BBX 41 36 0 0
BITMAP
7FF8001FFF00
7FFC001FFF00
07FE0007FC00
01FF0001F000
01FF0001F000
01FF8000E000
01FFC000E000
01FFE000E000
01DFE000E000
01DFF000E000
01CFF800E000
01C7FC00E000
01C3FE00E000
01C1FE00E000
01C1FF00E000
01C0FF80E000
01C07FC0E000
01C03FE0E000
01C03FE0E000
01C01FF0E000
01C00FF8E000
01C007FCE000
01C007FCE000
01C003FEE000
01C001FFE000
01C000FFE000
01C0007FE000
01C0007FE000
01C0003FE000
01C0001FE000
01C0000FE000
03E0000FE000
03F00007E000
0FF80003E000
7FFF0001E000
7FFF0000E000
ENDCHAR

STARTCHAR O
ENCODING 79
SWIDTH 833 0
DWIDTH 42 0
BBX 39 37 1 -1
BITMAP
0003FF8000
001FFFF000
003F83F800
00FE00FE00
01FC003F00
03F8001F80
07F0001FC0
0FF0000FE0
0FE0000FE0
1FE0000FF0
1FE00007F0
3FC00007F8
3FC00007F8
3FC00007F8
3FC00007FC
7FC00007FC
7FC00007FC
7FC00007FC
7FC00007FC
7FC00007FC
7FC00007FC
7FC00007FC
7FC00007F8
3FC00007F8
3FC00007F8
3FC00007F8
1FE0000FF0
1FE0000FF0
0FE0000FE0
0FF0001FE0
07F0001FC0
03F8003F80
01FC007F00
00FE00FE00
003F83F800
001FFFE000
0003FF8000
ENDCHAR

STARTCHAR P
ENCODING 80
SWIDTH 759 0
DWIDTH 38 0
BBX 37 36 1 0
BITMAP
3FFFFFF000
3FFFFFFC00
03FF03FE00
01FE007F80
01FE003F80
01FE003FC0
01FE001FC0
01FE001FE0
01FE001FE0
01FE001FE0
01FE001FE0
01FE001FE0
01FE001FE0
01FE001FC0
01FE003FC0
01FE003F80
01FE007F00
01FE03FE00
01FFFFF800
01FFFFE000
01FE000000
01FE000000
01FE000000
01FE000000
01FE000000
01FE000000
01FE000000
01FE000000
01FE000000
01FE000000
01FE000000
01FE000000
01FE000000
03FF000000
3FFFF80000
3FFFF80000
ENDCHAR

STARTCHAR Q
ENCODING 81
SWIDTH 833 0
DWIDTH 42 0
BBX 40 46 1 -9
BITMAP
0003FF8000
001FFFF000
003F83F800
00FE00FE00
01FC007F00
03F8003F80
07F0001FC0
0FF0001FE0
0FE0000FE0
1FE0000FF0
1FE0000FF0
3FC00007F8
3FC00007F8
3FC00007F8
3FC00007FC
7FC00007FC
7FC00007FC
7FC00007FC
7FC00007FC
7FC00007FC
7FC00007FC
7FC00007FC
7FC00007FC
3FC0FE07F8
3FC3FF87F8
3FC3CFC7F8
1FE703EFF0
1FEE01EFF0
0FEE01FFE0
0FEC00FFE0
07FC00FFC0
07FC00FF80
03FE00FF80
01FE00FF00
007F00FC00
003FC7FE00
000FFFFE00
0001FFFE00
000000FF06
000000FF06
0000007F8E
0000007FFC
0000007FFC
0000003FF8
0000001FF0
0000000FE0
ENDCHAR

STARTCHAR R
ENCODING 82
SWIDTH 815 0
DWIDTH 41 0
BBX 38 36 2 0
BITMAP
7FFFFFC000
7FFFFFF000
07FE07FC00
03FC01FE00
03FC00FF00
03FC007F00
03FC007F80
03FC007F80
03FC007F80
03FC007F80
03FC007F80
03FC007F00
03FC00FF00
03FC00FE00
03FC01FC00
03FC0FF800
03FFFFC000
03FFFC0000
03FC1F8000
03FC0FC000
03FC07E000
03FC07F000
03FC03F800
03FC03F800
03FC03FC00
03FC03FC00
03FC01FC00
03FC01FE00
03FC01FE18
03FC01FE18
03FC01FF38
03FC00FF30
03FC00FFF0
07FE007FE0
7FFFE07FC0
7FFFE01F80
ENDCHAR

STARTCHAR S
ENCODING 83
SWIDTH 667 0
DWIDTH 33 0
BBX 32 38 1 -1
BITMAP
003FE030
00FFF870
03F07E70
07801FF0
0F0007F0
0F0003F0
1E0001F0
1E0001F0
3E0000F0
3E000070
3E000070
3F000070
3F800030
3FF00000
1FFE0000
1FFFE000
1FFFFE00
0FFFFF80
07FFFFE0
01FFFFF0
007FFFF0
000FFFF8
0000FFF8
00000FFC
300003FC
300000FC
300000FC
3800007C
3800007C
3C00007C
3C000078
3E000078
3F0000F0
3F8001F0
3DE003E0
38F80F80
303FFF00
300FF800
ENDCHAR

STARTCHAR T
ENCODING 84
SWIDTH 722 0
DWIDTH 36 0
BBX 36 36 0 0
BITMAP
3FFFFFFFC0
3FFFFFFFC0
3FC7FE3FC0
3F03FC0FC0
3E03FC07C0
3C03FC03C0
3C03FC03C0
3803FC01C0
3803FC01C0
3803FC01C0
3003FC00C0
3003FC00C0
7003FC00E0
7003FC00E0
0003FC0000
0003FC0000
0003FC0000
0003FC0000
0003FC0000
0003FC0000
0003FC0000
0003FC0000
0003FC0000
0003FC0000
0003FC0000
0003FC0000
0003FC0000
0003FC0000
0003FC0000
0003FC0000
0003FC0000
0003FC0000
0003FC0000
0007FE0000
00FFFFF000
00FFFFF000
ENDCHAR

STARTCHAR U
ENCODING 85
SWIDTH 833 0
DWIDTH 42 0
BBX 42 37 0 -1
BITMAP
7FFFE01FFF00
7FFFE01FFF00
07FE0007FC00
03FC0001F000
03FC0001F000
03FC0000E000
03FC0000E000
03FC0000E000
03FC0000E000
03FC0000E000
03FC0000E000
03FC0000E000
03FC0000E000
03FC0000E000
03FC0000E000
03FC0000E000
03FC0000E000
03FC0000E000
03FC0000E000
03FC0000E000
03FC0000E000
03FC0000E000
03FC0000E000
03FC0000E000
03FC0000E000
03FC0000E000
03FC0000E000
03FC0001E000
01FE0001C000
01FE0003C000
01FF0003C000
00FF800F8000
007FE01F0000
003FFFFE0000
001FFFFC0000
0007FFF00000
00007F800000
ENDCHAR

STARTCHAR V
ENCODING 86
SWIDTH 759 0
DWIDTH 38 0
BBX 42 37 -2 -1
BITMAP
7FFFE03FFF00
7FFFE03FFF00
07FE0003FC00
03FC0001F800
03FC0000F000
01FC0000E000
01FE0000E000
00FE0001C000
00FF0001C000
00FF0001C000
007F80038000
007F80038000
003F80070000
003FC0070000
003FC0070000
001FE00E0000
001FE00E0000
000FE01C0000
000FF01C0000
000FF01C0000
0007F8380000
0007F8380000
0003F8700000
0003FC700000
0001FC700000
0001FEE00000
0001FEE00000
0000FEC00000
0000FFC00000
00007FC00000
00007F800000
00007F800000
00003F000000
00003F000000
00001F000000
00001E000000
00001E000000
ENDCHAR

STARTCHAR W
ENCODING 87
SWIDTH 981 0
DWIDTH 49 0
BBX 55 37 -3 -1
BITMAP
7FFF0FFFF83FFC
7FFF0FFFF83FFC
0FF801FF800FF0
07F000FF0007C0
07F0007F000380
07F8007F800380
03F8003F800380
03F8003F800700
03FC007FC00700
01FC007FC00700
01FC007FC00E00
01FE00FFE00E00
00FE00EFE00E00
00FE00EFE01C00
00FF01CFF01C00
007F01C7F01C00
007F01C7F03800
007F8387F83800
003F8383F83800
003F8383F87000
003FC703FC7000
001FC701FC7000
001FC701FC6000
001FEE01FEE000
000FEE00FEE000
000FEE00FEC000
000FFC00FFC000
0007FC007FC000
0007FC007F8000
0007F8007F8000
0003F8003F8000
0003F8003F8000
0003F0003F0000
0001F0001F0000
0001F0001F0000
0001E0001E0000
0000E0000E0000
ENDCHAR

STARTCHAR X
ENCODING 88
SWIDTH 722 0
DWIDTH 36 0
BBX 41 36 -3 0
BITMAP
7FFFE0FFFE00
7FFFE0FFFE00
0FFE001FE000
07FE000FC000
03FE000F8000
01FF000F0000
00FF801E0000
00FF801E0000
007FC03C0000
003FE0780000
001FE0F00000
001FF0E00000
000FF9C00000
0007FF800000
0003FF800000
0003FF000000
0001FF000000
0000FF800000
00007F800000
00007FC00000
0000FFE00000
0001FFF00000
0003CFF00000
00038FF80000
000707FC0000
000E03FE0000
001E01FE0000
003C01FF0000
007800FF8000
0070007FC000
00F0007FC000
01F0003FE000
03F0001FF000
0FF8003FF800
7FFF03FFFF00
7FFF03FFFF00
ENDCHAR

STARTCHAR Y
ENCODING 89
SWIDTH 722 0
DWIDTH 36 0
BBX 39 36 -1 0
BITMAP
7FFFE0FFFC
7FFFE0FFFC
0FFE001FE0
07FC000F80
03FE000F00
01FE000E00
01FF000E00
00FF001C00
00FF801C00
007F803800
003FC03800
003FE07000
001FE07000
001FF0E000
000FF0E000
0007F9C000
0007F9C000
0003FF8000
0003FF8000
0001FF0000
0001FF0000
0000FF0000
0000FF0000
0000FF0000
0000FF0000
0000FF0000
0000FF0000
0000FF0000
0000FF0000
0000FF0000
0000FF0000
0000FF0000
0000FF0000
0001FF8000
003FFFFC00
003FFFFC00
ENDCHAR

STARTCHAR Z
ENCODING 90
SWIDTH 667 0
DWIDTH 33 0
BBX 32 36 1 0
BITMAP
1FFFFFFC
1FFFFFFC
1FE007FC
1F800FF8
1F000FF0
1E001FF0
1C003FE0
1C003FC0
18007FC0
18007F80
1800FF80
3801FF00
0001FE00
0003FE00
0007FC00
0007F800
000FF800
001FF000
001FE000
003FE000
003FC000
007FC000
00FF800C
00FF000C
01FF000C
03FE000C
03FC001C
07FC001C
07F8003C
0FF0003C
1FF0007C
1FE0007C
3FE001FC
7FC007FC
7FFFFFFC
7FFFFFFC
ENDCHAR

STARTCHAR bracketleft
ENCODING 91
SWIDTH 389 0
DWIDTH 19 0
BBX 15 45 5 -9
BITMAP
7FF8
7FF8
7F80
7F00
7F00
7F00
7F00
7F00
7F00
7F00
7F00
7F00
7F00
7F00
7F00
7F00
7F00
7F00
7F00
7F00
7F00
7F00
7F00
7F00
7F00
7F00
7F00
7F00
7F00
7F00
7F00
7F00
7F00
7F00
7F00
7F00
7F00
7F00
7F00
7F00
7F00
7F00
7F80
7FF8
7FF8
ENDCHAR

STARTCHAR backslash
ENCODING 92
SWIDTH 606 0
DWIDTH 30 0
BBX 32 36 -1 0
BITMAP
3E000000
1E000000
0F000000
0F800000
07800000
03C00000
03E00000
01E00000
00F00000
00F80000
007C0000
003C0000
003E0000
001F0000
000F0000
000F8000
0007C000
0003C000
0003E000
0001F000
0000F000
0000F800
00007C00
00003C00
00003E00
00001F00
00000F00
00000F80
000007C0
000003C0
000003E0
000001F0
000000F0
000000F8
0000007C
0000003C
ENDCHAR

STARTCHAR bracketright
ENCODING 93
SWIDTH 389 0
DWIDTH 19 0
BBX 15 45 0 -9
BITMAP
7FF8
7FF8
03F8
01F8
01F8
01F8
01F8
01F8
01F8
01F8
01F8
01F8
01F8
01F8
01F8
01F8
01F8
01F8
01F8
01F8
01F8
01F8
01F8
01F8
01F8
01F8
01F8
01F8
01F8
01F8
01F8
01F8
01F8
01F8
01F8
01F8
01F8
01F8
01F8
01F8
01F8
01F8
03F8
7FF8
7FF8
ENDCHAR

STARTCHAR asciicircum
ENCODING 94
SWIDTH 606 0
DWIDTH 30 0
BBX 25 17 3 19
BITMAP
00180000
001C0000
003C0000
007E0000
007F0000
00FF0000
00FF8000
01FF8000
01E7C000
03E7C000
07C3E000
07C3F000
0F81F000
0F80F800
1F00F800
1E007C00
3E007C00
ENDCHAR

STARTCHAR underscore
ENCODING 95
SWIDTH 500 0
DWIDTH 25 0
BBX 29 2 -2 -6
BITMAP
3FFFFFE0
3FFFFFE0
ENDCHAR

STARTCHAR quoteleft
ENCODING 96
SWIDTH 241 0
DWIDTH 12 0
BBX 12 16 0 21
BITMAP
01C0
0380
0700
0E00
1C00
1800
3800
3800
7F80
7FC0
7FE0
7FE0
3FE0
3FE0
1FC0
0F80
ENDCHAR

STARTCHAR a
ENCODING 97
SWIDTH 611 0
DWIDTH 31 0
BBX 31 25 0 -1
BITMAP
003FE000
00FFF800
03E1FC00
07C07E00
07C07F00
0FE03F00
0FE03F00
0FE03F00
07C03F00
01803F00
0001FF00
003FFF00
00FE3F00
03F03F00
0FE03F00
1FC03F00
1F803F00
3F803F00
3F807F00
3F807F00
3FC0FF00
3FE3BF80
1FFF1FF8
0FFE0FF0
03F807C0
ENDCHAR

STARTCHAR b
ENCODING 98
SWIDTH 648 0
DWIDTH 32 0
BBX 32 38 -1 -1
BITMAP
01F00000
3FF00000
3FF00000
07F00000
03F00000
03F00000
03F00000
03F00000
03F00000
03F00000
03F00000
03F00000
03F00000
03F07F80
03F1FFC0
03F3FFE0
03F71FF0
03FE07F8
03FC03FC
03F803FC
03F803FC
03F801FC
03F001FE
03F001FE
03F001FE
03F001FE
03F001FE
03F001FE
03F001FC
03F801FC
03F801FC
03F803F8
03F803F8
07FC07F0
07DC07F0
078F1FE0
0707FF80
0601FE00
ENDCHAR

STARTCHAR c
ENCODING 99
SWIDTH 556 0
DWIDTH 28 0
BBX 27 25 1 -1
BITMAP
001FF000
00FFFC00
01F83F00
07F01F00
0FE01F80
0FC03F80
1FC03F80
1F803F80
3F803F80
3F801F00
3F800400
7F800000
7F800000
7F800000
7F800000
7F800000
3F800080
3FC001C0
3FC00180
1FC00380
1FE00700
0FF00E00
07FC3C00
01FFF800
007FC000
ENDCHAR

STARTCHAR d
ENCODING 100
SWIDTH 667 0
DWIDTH 33 0
BBX 31 38 1 -1
BITMAP
00000FC0
0001FFC0
0001FFC0
00001FC0
00000FC0
00000FC0
00000FC0
00000FC0
00000FC0
00000FC0
00000FC0
00000FC0
00000FC0
00FF0FC0
03FF8FC0
07FFCFC0
0FF0EFC0
0FE07FC0
1FC03FC0
3FC01FC0
3F801FC0
3F801FC0
3F800FC0
7F800FC0
7F800FC0
7F800FC0
7F800FC0
7F800FC0
7F800FC0
7F801FC0
3F801FC0
3FC01FC0
3FC03FC0
1FE07FC0
0FF9EFE0
07FFCFFC
03FF8FFC
00FE0FFC
ENDCHAR

STARTCHAR e
ENCODING 101
SWIDTH 574 0
DWIDTH 29 0
BBX 27 24 1 -1
BITMAP
003FC000
01FFF000
03F0FC00
07E07E00
0FC03E00
1FC03F00
1F801F00
3F801F80
3F801F80
3F803F80
3FFFFF80
3FFFFF80
3F800000
3F800000
3F800000
3F800000
3FC00100
1FC00180
1FC00380
0FE00700
07F00E00
03FC3C00
01FFF800
003FE000
ENDCHAR

STARTCHAR f
ENCODING 102
SWIDTH 389 0
DWIDTH 19 0
BBX 26 37 0 0
BITMAP
0007F800
001FFC00
007E1E00
00FC1F00
00F83F00
01F87F00
01F87F00
03F87F00
03F03E00
03F01C00
03F00000
03F00000
03F00000
03F00000
3FFFE000
3FFFE000
3FFFE000
03F00000
03F00000
03F00000
03F00000
03F00000
03F00000
03F00000
03F00000
03F00000
03F00000
03F00000
03F00000
03F00000
03F00000
03F00000
03F00000
03F00000
07F80000
3FFFC000
3FFFC000
ENDCHAR

STARTCHAR g
ENCODING 103
SWIDTH 611 0
DWIDTH 31 0
BBX 31 36 1 -9
BITMAP
000000F0
000001F8
007FE3FC
01FFFF7C
03F0FE78
07E07E30
0FE07F00
1FC03F80
1FC03F80
1FC03F80
1FC03F80
1FC03F80
1FC03F80
0FE07F00
0FE07F00
07F0FE00
01FFF800
03FFE000
0F000000
0C000000
1C000000
1E000000
1FFFFC00
1FFFFF80
0FFFFFC0
0FFFFFC0
03FFFFE0
03FFFFE0
1F8003E0
3E0001E0
3C0001E0
3C0001C0
3E000380
1F801F00
07FFFE00
00FFE000
ENDCHAR

STARTCHAR h
ENCODING 104
SWIDTH 685 0
DWIDTH 34 0
BBX 33 37 1 0
BITMAP
01F0000000
7FF0000000
7FF0000000
07F0000000
03F0000000
03F0000000
03F0000000
03F0000000
03F0000000
03F0000000
03F0000000
03F0000000
03F0000000
03F03F0000
03F0FFC000
03F1FFE000
03F3FFE000
03F70FF000
03FC07F000
03F807F000
03F803F000
03F003F000
03F003F000
03F003F000
03F003F000
03F003F000
03F003F000
03F003F000
03F003F000
03F003F000
03F003F000
03F003F000
03F003F000
03F003F000
07F807F800
3FFF3FFF00
3FFF3FFF00
ENDCHAR

STARTCHAR i
ENCODING 105
SWIDTH 370 0
DWIDTH 19 0
BBX 16 36 2 0
BITMAP
0780
0FC0
1FE0
1FE0
1FE0
1FE0
0FC0
0300
0000
0000
0000
0000
03E0
7FE0
7FE0
0FE0
07E0
07E0
07E0
07E0
07E0
07E0
07E0
07E0
07E0
07E0
07E0
07E0
07E0
07E0
07E0
07E0
07E0
0FF0
7FFE
7FFE
ENDCHAR

STARTCHAR j
ENCODING 106
SWIDTH 352 0
DWIDTH 18 0
BBX 18 45 -3 -9
BITMAP
003C00
007E00
00FF00
00FF00
00FF00
00FF00
007E00
001800
000000
000000
000000
000000
001F00
03FF00
03FF00
007F00
003F00
003F00
003F00
003F00
003F00
003F00
003F00
003F00
003F00
003F00
003F00
003F00
003F00
003F00
003F00
003F00
003F00
003F00
003F00
003F00
003F00
003E00
1C3E00
3E3C00
3E3C00
3E7800
3FF000
1FC000
0F0000
ENDCHAR

STARTCHAR k
ENCODING 107
SWIDTH 667 0
DWIDTH 33 0
BBX 34 37 0 0
BITMAP
01F0000000
7FF0000000
7FF0000000
07F0000000
03F0000000
03F0000000
03F0000000
03F0000000
03F0000000
03F0000000
03F0000000
03F0000000
03F0000000
03F0000000
03F07FFC00
03F07FFC00
03F00FF000
03F0078000
03F00F0000
03F01E0000
03F03C0000
03F0700000
03F0F80000
03F1F80000
03F7FC0000
03FFFE0000
03FCFE0000
03F87F0000
03F07F8000
03F03FC000
03F01FC000
03F01FE000
03F00FF000
03F007F800
07F807FC00
3FFF3FFF00
3FFF3FFF00
ENDCHAR

STARTCHAR l
ENCODING 108
SWIDTH 352 0
DWIDTH 18 0
BBX 17 37 0 0
BITMAP
01F000
3FF000
3FF000
07F000
03F000
03F000
03F000
03F000
03F000
03F000
03F000
03F000
03F000
03F000
03F000
03F000
03F000
03F000
03F000
03F000
03F000
03F000
03F000
03F000
03F000
03F000
03F000
03F000
03F000
03F000
03F000
03F000
03F000
03F000
07F800
3FFF00
3FFF00
ENDCHAR

STARTCHAR m
ENCODING 109
SWIDTH 963 0
DWIDTH 48 0
BBX 50 24 -1 0
BITMAP
00301F801F8000
3FF0FFC07FC000
3FF1FFE0FFF000
07F3FFF1FFF000
03F70FF387F800
03FE03FE03F800
03FC03FC03F800
03F801FC01F800
03F801F801F800
03F001F801F800
03F001F801F800
03F001F801F800
03F001F801F800
03F001F801F800
03F001F801F800
03F001F801F800
03F001F801F800
03F001F801F800
03F001F801F800
03F001F801F800
03F801F801F800
07F803FC03FC00
3FFF1FFF9FFF80
3FFF1FFF9FFF80
ENDCHAR

STARTCHAR n
ENCODING 110
SWIDTH 685 0
DWIDTH 34 0
BBX 33 24 1 0
BITMAP
00203F0000
3FF0FF8000
3FF1FFC000
07F3FFE000
03F70FF000
03FC07F000
03F807F000
03F803F000
03F803F000
03F003F000
03F003F000
03F003F000
03F003F000
03F003F000
03F003F000
03F003F000
03F003F000
03F003F000
03F003F000
03F003F000
03F003F000
07F807F800
3FFF3FFF00
3FFF3FFF00
ENDCHAR

STARTCHAR o
ENCODING 111
SWIDTH 611 0
DWIDTH 31 0
BBX 29 25 1 -1
BITMAP
003FE000
00FFFC00
03F07E00
07E03F00
0FC01F80
1FC01FC0
1F800FC0
3F800FE0
3F800FE0
3F800FF0
7F800FF0
7F800FF0
7F800FF0
7F800FF0
7F800FF0
3F800FE0
3F800FE0
3F800FE0
1FC00FC0
1FC01FC0
0FC01F80
07E03F00
03F8FE00
00FFF800
003FE000
ENDCHAR

STARTCHAR p
ENCODING 112
SWIDTH 667 0
DWIDTH 33 0
BBX 31 33 1 -9
BITMAP
00207E00
3FE1FF80
3FE7FFC0
1FEFFFE0
07EC1FF0
07F80FF0
07F807F8
07F007F8
07F003F8
07F003FC
07E003FC
07E003FC
07E003FC
07E003FC
07E003FC
07F003FC
07F003F8
07F003F8
07F007F8
07F807F0
07FC0FF0
07EE1FE0
07E7FFC0
07E3FF80
07E0FE00
07E00000
07E00000
07E00000
07E00000
07E00000
0FF00000
3FFE0000
3FFE0000
ENDCHAR

STARTCHAR q
ENCODING 113
SWIDTH 648 0
DWIDTH 32 0
BBX 32 33 1 -9
BITMAP
007F8070
01FFE0E0
03F879E0
07E03DE0
0FE01FE0
1FC01FE0
1FC00FE0
3F800FE0
3F800FE0
3F800FE0
3F800FE0
7F800FE0
7F800FE0
7F800FE0
7F800FE0
3F800FE0
3FC00FE0
3FC01FE0
3FC01FE0
1FE03FE0
0FF07FE0
0FFFEFE0
07FFCFE0
01FF8FE0
007C0FE0
00000FE0
00000FE0
00000FE0
00000FE0
00000FE0
00001FF0
0000FFFC
0000FFFC
ENDCHAR

STARTCHAR r
ENCODING 114
SWIDTH 519 0
DWIDTH 26 0
BBX 26 24 1 0
BITMAP
00607800
3FE1FE00
3FE3BF00
07E73F00
07E63F00
03EC3F00
03EC3E00
03E81E00
03F80000
03F80000
03F80000
03F80000
03F00000
03F00000
03F00000
03F00000
03F00000
03F00000
03F00000
03F00000
03F00000
07F80000
7FFF8000
7FFF8000
ENDCHAR

STARTCHAR s
ENCODING 115
SWIDTH 500 0
DWIDTH 25 0
BBX 24 25 1 -1
BITMAP
01FC30
07FF70
0F07F0
1E01F0
1C00F0
3C0078
3C0038
3E0038
3FC000
3FFE00
1FFFC0
1FFFE0
0FFFF0
07FFF8
01FFF8
001FFC
3001FC
30007C
38003C
3C003C
3E0038
3F0078
3FC1F0
39FFE0
307F80
ENDCHAR

STARTCHAR t
ENCODING 116
SWIDTH 426 0
DWIDTH 21 0
BBX 22 33 -1 -1
BITMAP
003000
003000
003000
007000
007000
00F000
00F000
01F000
07F000
3FFFF0
3FFFF0
3FFFF0
03F000
03F000
03F000
03F000
03F000
03F000
03F000
03F000
03F000
03F000
03F000
03F018
03F018
03F038
03F030
03F030
03F870
01FCE0
01FFE0
00FFC0
003F00
ENDCHAR

STARTCHAR u
ENCODING 117
SWIDTH 685 0
DWIDTH 34 0
BBX 34 25 0 -1
BITMAP
03F003F000
3FF03FF000
3FF03FF000
0FF007F000
07F003F000
07F003F000
07F003F000
07F003F000
07F003F000
07F003F000
07F003F000
07F003F000
07F003F000
07F003F000
07F003F000
07F003F000
07F007F000
07F007F000
03F00FF000
03F81FF000
03FC3BF000
03FFF3F800
01FFE3FF00
00FFC3FF00
003F01FF00
ENDCHAR

STARTCHAR v
ENCODING 118
SWIDTH 611 0
DWIDTH 31 0
BBX 32 23 0 0
BITMAP
7FFE0FFC
7FFE0FFC
1FF003F0
0FF001E0
07F001C0
07F001C0
03F80180
03FC0380
01FC0300
00FE0700
00FE0600
007F0E00
007F0C00
003F9C00
003F9800
001FF800
001FF000
000FF000
000FE000
0007E000
0003C000
0003C000
00018000
ENDCHAR

STARTCHAR w
ENCODING 119
SWIDTH 889 0
DWIDTH 44 0
BBX 43 23 1 0
BITMAP
7FF8FFF8FF80
7FF8FFF8FF80
1FE03FC03E00
0FC01FC01C00
0FE01FC01800
07E01FE03800
07F01FE03000
07F03FF07000
03F837F07000
03F873F06000
01FC73F8E000
01FC63F8C000
00FCE1FDC000
00FEC1FDC000
00FFC0FF8000
007FC0FF8000
007F807F0000
003F807F0000
003F003F0000
001F003E0000
001F003E0000
000E001C0000
000E001C0000
ENDCHAR

STARTCHAR x
ENCODING 120
SWIDTH 611 0
DWIDTH 31 0
BBX 31 23 0 0
BITMAP
3FFE3FF0
3FFE3FF0
0FF80FC0
07F80700
03FC0E00
01FE1C00
00FE3800
00FF7000
007FF000
003FE000
001FE000
001FE000
000FF000
000FF800
001FFC00
0039FC00
0071FE00
00E0FF00
01C07F80
03C03FC0
0FC07FE0
3FF9FFF8
3FF9FFF8
ENDCHAR

STARTCHAR y
ENCODING 121
SWIDTH 611 0
DWIDTH 31 0
BBX 32 32 -1 -9
BITMAP
3FFF0FFC
3FFF0FFC
0FF801F0
07F001E0
03F800C0
03F801C0
01FC0180
01FC0380
00FE0300
00FE0700
007F0600
007F0E00
003F8C00
003F9C00
001FD800
001FF800
000FF000
000FF000
0007E000
0007E000
0003C000
0001C000
00018000
00038000
00030000
1E070000
3F060000
3F0E0000
3F1C0000
3F380000
1FF00000
0FE00000
ENDCHAR

STARTCHAR z
ENCODING 122
SWIDTH 537 0
DWIDTH 27 0
BBX 25 23 1 0
BITMAP
1FFFFE00
1FFFFE00
1F01FE00
1E03FC00
1C03F800
1C07F800
180FF000
181FE000
001FC000
003FC000
007F8000
007F0000
00FF0000
01FE0000
03FC0600
03F80600
07F80600
0FF00E00
1FE00E00
1FC01E00
3FC03E00
3FFFFE00
3FFFFE00
ENDCHAR

STARTCHAR braceleft
ENCODING 123
SWIDTH 389 0
DWIDTH 19 0
BBX 17 46 2 -9
BITMAP
001E00
00F800
01F000
03E000
07C000
07C000
0FC000
0FC000
0FE000
0FE000
0FE000
07E000
07F000
07F000
07F000
03F000
03F000
03E000
03E000
07C000
078000
0E0000
780000
780000
1E0000
0F8000
07C000
03E000
03E000
03F000
03F000
07F000
07F000
07F000
07F000
07F000
0FF000
0FE000
0FE000
07E000
07E000
07E000
03E000
01F000
00F800
003E00
ENDCHAR

STARTCHAR bar
ENCODING 124
SWIDTH 606 0
DWIDTH 30 0
BBX 7 46 12 -10
BITMAP
7C
7C
7C
7C
7C
7C
7C
7C
7C
7C
7C
7C
7C
7C
7C
7C
7C
7C
7C
7C
7C
7C
7C
7C
7C
7C
7C
7C
7C
7C
7C
7C
7C
7C
7C
7C
7C
7C
7C
7C
7C
7C
7C
7C
7C
7C
ENDCHAR

STARTCHAR braceright
ENCODING 125
SWIDTH 389 0
DWIDTH 19 0
BBX 17 46 1 -9
BITMAP
3C0000
1F0000
07C000
03E000
03F000
03F000
03F000
03F800
03F800
03F800
07F800
07F000
07F000
07F000
07F000
07F000
07E000
03E000
03E000
01F000
00F000
003C00
000F00
000700
003C00
00F800
01F000
03E000
03E000
07E000
07E000
07F000
07F000
07F000
07F000
07F000
07F000
07F000
03F000
03F000
03F000
03E000
03C000
078000
1F0000
7C0000
ENDCHAR

STARTCHAR asciitilde
ENCODING 126
SWIDTH 606 0
DWIDTH 30 0
BBX 30 8 0 13
BITMAP
03F00018
0FFE0018
1FFFC030
1FFFF070
381FFFF0
3007FFE0
3000FFC0
20001F80
ENDCHAR

STARTCHAR space
ENCODING 160
SWIDTH 287 0
DWIDTH 19 0
BBX 0 0 0 0
BITMAP
ENDCHAR

STARTCHAR Aogonek
ENCODING 161
SWIDTH 759 0
DWIDTH 38 0
BBX 42 49 -2 -12
BITMAP
00001E000000
00001E000000
00001E000000
00003F000000
00003F000000
00007F800000
00007F800000
0000FF800000
0000FFC00000
0000FFC00000
0001DFE00000
00019FE00000
00038FF00000
00030FF00000
000307F00000
000707F80000
000607F80000
000E03FC0000
000C03FC0000
001C01FC0000
001C01FE0000
001800FE0000
003800FF0000
003FFFFF0000
007FFFFF8000
0060007F8000
00E0003F8000
00E0003FC000
00C0003FC000
01C0001FE000
01C0001FE000
03C0000FE000
03C0000FF000
07C0000FF000
0FF0001FF800
7FFE01FFFF00
7FFE01FFFF00
00000000E000
00000001C000
000000038000
000000078000
000000078000
00000007C000
00000007C000
00000007E000
00000003F800
00000001FF00
00000000FF00
000000001800
ENDCHAR

STARTCHAR breve
ENCODING 162
SWIDTH 333 0
DWIDTH 17 0
BBX 18 8 -1 27
BITMAP
300100
300300
3C0700
1FFF00
1FFE00
0FFC00
07F800
01E000
ENDCHAR

STARTCHAR Lslash
ENCODING 163
SWIDTH 722 0
DWIDTH 36 0
BBX 36 36 0 0
BITMAP
3FFFF00000
3FFFF00000
03FF000000
01FE000000
01FE000000
01FE000000
01FE000000
01FE000000
01FE030000
01FE070000
01FE0E0000
01FE1C0000
01FE380000
01FEF00000
01FFC00000
01FF800000
01FF000000
01FE000000
01FE000000
01FE000000
01FE000000
01FE000000
03FE0000C0
07FE0000C0
1FFE0000C0
39FE0001C0
31FE0001C0
21FE0001C0
01FE0003C0
01FE0003C0
01FE0007C0
01FE000FC0
01FE001FC0
03FF007FC0
3FFFFFFFC0
3FFFFFFFC0
ENDCHAR

STARTCHAR currency
ENCODING 164
SWIDTH 606 0
DWIDTH 30 0
BBX 29 25 1 4
BITMAP
0C000180
1E1FC3C0
3F7FFFE0
3FFFFFE0
1FFFFFC0
0FF07F80
07C01F00
0F800F80
0F000780
1F0007C0
1F0007C0
1E0003C0
1E0003C0
1E0003C0
1F0003C0
1F0007C0
0F000780
0F800F80
07C01F00
0FF07F80
1FFFFFC0
3FFFFFE0
3F7FF7E0
1E1FC1C0
08000080
ENDCHAR

STARTCHAR Lcaron
ENCODING 165
SWIDTH 722 0
DWIDTH 36 0
BBX 36 37 0 0
BITMAP
0000007C00
3FFFF0FE00
3FFFF0FF00
03FF01FF00
01FE01FF80
01FE00FF80
01FE00FF80
01FE007F80
01FE000700
01FE000700
01FE000700
01FE000E00
01FE000C00
01FE003800
01FE007000
01FE00E000
01FE000000
01FE000000
01FE000000
01FE000000
01FE000000
01FE000000
01FE000000
01FE0000C0
01FE0000C0
01FE0001C0
01FE0001C0
01FE0001C0
01FE0003C0
01FE0003C0
01FE0007C0
01FE0007C0
01FE000FC0
01FE001FC0
03FF007FC0
3FFFFFFF80
3FFFFFFF80
ENDCHAR

STARTCHAR Sacute
ENCODING 166
SWIDTH 667 0
DWIDTH 33 0
BBX 32 50 1 -1
BITMAP
0000F800
0001F800
0001F800
0003F800
0007F000
0007C000
000F0000
001C0000
00000000
00000000
00000000
00000000
003FE030
00FFF870
03F07E70
07801FF0
0F0007F0
0F0003F0
1E0001F0
1E0001F0
3E0000F0
3E000070
3E000070
3F000070
3FC00030
3FF00000
1FFE0000
1FFFE000
0FFFFE00
0FFFFF80
07FFFFC0
01FFFFF0
007FFFF0
000FFFF8
0000FFF8
00000FFC
300003FC
300001FC
300000FC
3800007C
3800007C
3C00007C
3E000078
3E000078
3F0000F0
3F8001F0
3DE003E0
38F80FC0
303FFF00
300FF800
ENDCHAR

STARTCHAR section
ENCODING 167
SWIDTH 500 0
DWIDTH 25 0
BBX 25 46 0 -9
BITMAP
003FC000
01FFF000
03E0F800
07C0FC00
0781FC00
0F81FC00
0FC1FC00
0FC1FC00
0FE0F800
0FF00000
07F80000
07FC0000
03FE0000
01FF0000
01FF8000
07FFC000
0E3FF000
1E1FF800
1C0FF800
3C07FC00
3E03FE00
3E01FE00
3F00FE00
3F807E00
3FC03E00
1FE03E00
1FF01E00
0FF81C00
07FE3C00
07FF7800
01FFF000
00FFC000
007FE000
003FF000
001FF000
000FF800
0003F800
0F81F800
1FC1F800
1FC0F800
1FC0F800
1FC0F000
1F81F000
0FC3E000
07FFC000
01FE0000
ENDCHAR

STARTCHAR dieresis
ENCODING 168
SWIDTH 333 0
DWIDTH 17 0
BBX 20 7 -1 28
BITMAP
1C0380
3E07C0
7F0FE0
7F0FE0
7F0FE0
3E07C0
1C0380
ENDCHAR

STARTCHAR Scaron
ENCODING 169
SWIDTH 667 0
DWIDTH 33 0
BBX 32 51 1 -1
BITMAP
00800100
00C00600
00700E00
00781C00
003C3C00
003FF800
001FF800
001FF000
000FF000
000FE000
00000000
00000000
00000000
003FE030
00FFF870
03F07E70
07801FF0
0F0007F0
0F0003F0
1E0001F0
1E0001F0
3E0000F0
3E000070
3E000070
3F000070
3FC00030
3FF00000
1FFE0000
1FFFE000
0FFFFE00
0FFFFF80
07FFFFC0
01FFFFF0
007FFFF0
000FFFF8
0000FFF8
00000FFC
300003FC
300001FC
300000FC
3800007C
3800007C
3C00007C
3E000078
3E000078
3F0000F0
3F8001F0
3DE003E0
38F80FC0
303FFF00
300FF800
ENDCHAR

STARTCHAR Scommaaccent
ENCODING 170
SWIDTH 667 0
DWIDTH 33 0
BBX 32 48 1 -11
BITMAP
003FE030
00FFF870
03F07E70
07C01FF0
0F0007F0
0F0003F0
1E0001F0
1E0001F0
3E0000F0
3E000070
3E000070
3F000070
3F800030
3FF00000
1FFE0000
1FFFE000
1FFFFE00
0FFFFF80
07FFFFE0
01FFFFF0
007FFFF0
000FFFF8
0000FFF8
00000FFC
300003FC
300000FC
300000FC
3800007C
3800007C
3C00007C
3E000078
3E000078
3F0000F0
3F8001F0
3DE003E0
38FC0FC0
303FFF00
300FF800
00000000
00000000
0003C000
0007E000
0007E000
0007E000
00006000
00004000
00018000
00020000
ENDCHAR

STARTCHAR Tcaron
ENCODING 171
SWIDTH 722 0
DWIDTH 36 0
BBX 36 50 0 0
BITMAP
0020004000
003000C000
001C038000
001E078000
000F0F0000
000FFF0000
0007FE0000
0007FE0000
0003FC0000
0003FC0000
0000000000
0000000000
0000000000
0000000000
3FFFFFFFC0
3FFFFFFFC0
3FC7FE3FC0
3F03FC0FC0
3E03FC07C0
3C03FC03C0
3C03FC03C0
3803FC01C0
3803FC01C0
3803FC01C0
3003FC00C0
3003FC00C0
7003FC00E0
7003FC00E0
0003FC0000
0003FC0000
0003FC0000
0003FC0000
0003FC0000
0003FC0000
0003FC0000
0003FC0000
0003FC0000
0003FC0000
0003FC0000
0003FC0000
0003FC0000
0003FC0000
0003FC0000
0003FC0000
0003FC0000
0003FC0000
0003FC0000
0007FE0000
00FFFFF000
00FFFFF000
ENDCHAR

STARTCHAR Zacute
ENCODING 172
SWIDTH 667 0
DWIDTH 33 0
BBX 32 49 1 0
BITMAP
0000F800
0001F800
0001F800
0003F800
0007F000
000FC000
000F0000
001C0000
00000000
00000000
00000000
00000000
00000000
1FFFFFFC
1FFFFFFC
1FE007FC
1F800FF8
1F000FF0
1E001FF0
1C003FE0
1C003FC0
1C007FC0
18007F80
1800FF80
3801FF00
0001FE00
0003FE00
0007FC00
0007F800
000FF800
001FF000
001FE000
003FE000
003FC000
007FC000
00FF800C
00FF000C
01FF000C
03FE000C
03FC001C
07FC001C
07F8003C
0FF0003C
1FF0007C
1FE000FC
3FE001FC
7FC007FC
7FFFFFFC
7FFFFFFC
ENDCHAR

STARTCHAR hyphen
ENCODING 173
SWIDTH 333 0
DWIDTH 17 0
BBX 19 5 -1 9
BITMAP
3FFF80
3FFF80
3FFF80
3FFF80
3FFF80
ENDCHAR

STARTCHAR Zcaron
ENCODING 174
SWIDTH 667 0
DWIDTH 33 0
BBX 32 50 1 0
BITMAP
00800100
00C00600
00600E00
00781C00
003C7C00
003EF800
001FF800
001FF000
000FF000
000FE000
00000000
00000000
00000000
00000000
1FFFFFFC
1FFFFFFC
1FE007FC
1F800FF8
1F000FF0
1E001FF0
1C003FE0
1C003FC0
1C007FC0
18007F80
1800FF80
3801FF00
0001FE00
0003FE00
0007FC00
0007F800
000FF800
001FF000
001FE000
003FE000
003FC000
007FC000
00FF800C
00FF000C
01FF000C
03FE000C
03FC001C
07FC001C
07F8003C
0FF0003C
1FF0007C
1FE000FC
3FE001FC
7FC007FC
7FFFFFFC
7FFFFFFC
ENDCHAR

STARTCHAR Zdotaccent
ENCODING 175
SWIDTH 667 0
DWIDTH 33 0
BBX 33 48 0 0
BITMAP
0001C00000
0003E00000
0007F00000
0007F00000
0007F00000
0003E00000
0000800000
0000000000
0000000000
0000000000
0000000000
0000000000
0FFFFFFE00
0FFFFFFE00
0FF003FC00
0FC007FC00
0F8007F800
0F000FF000
0E001FF000
0E001FE000
0C003FE000
1C007FC000
1C007F8000
1C00FF8000
0001FF0000
0001FE0000
0003FE0000
0003FC0000
0007F80000
000FF80000
000FF00000
001FF00000
003FE00000
003FC00000
007FC00600
00FF800600
00FF000600
01FF000E00
01FE000E00
03FC000E00
07FC001E00
07F8001E00
0FF8003E00
1FF0007E00
1FE000FE00
3FE003FE00
3FFFFFFE00
3FFFFFFC00
ENDCHAR

STARTCHAR degree
ENCODING 176
SWIDTH 400 0
DWIDTH 20 0
BBX 19 17 1 18
BITMAP
03F800
0FFE00
1FFF00
1F1F00
3C0780
3C0780
7803C0
7803C0
7803C0
7803C0
3803C0
3C0780
3E0F80
1FFF00
0FFE00
07FC00
01F000
ENDCHAR

STARTCHAR aogonek
ENCODING 177
SWIDTH 611 0
DWIDTH 31 0
BBX 31 36 0 -12
BITMAP
003FF000
00FFFC00
03E0FE00
07C07F00
07C03F80
0FE01F80
0FE01F80
0FE01F80
07C01F80
01801F80
0001FF80
003FFF80
01FF1F80
07F81F80
0FE01F80
1FC01F80
1FC01F80
3F803F80
3F803F80
3F807F80
3FC0FF80
1FE1DFC8
1FFF9FF8
0FFE0FF8
03FC07E0
00000E00
00001C00
00003C00
00003C00
00003E00
00003E00
00003F00
00001FC0
00001FF8
000007F8
000001E0
ENDCHAR

STARTCHAR ogonek
ENCODING 178
SWIDTH 333 0
DWIDTH 17 0
BBX 15 11 1 -11
BITMAP
0600
0E00
1C00
3C00
3C00
3E00
3E00
3F00
1FE0
0FFC
07F8
ENDCHAR

STARTCHAR lslash
ENCODING 179
SWIDTH 352 0
DWIDTH 18 0
BBX 17 37 0 0
BITMAP
01F000
3FF000
3FF000
07F000
03F000
03F000
03F000
03F000
03F000
03F000
03F000
03F000
03F100
03F700
03FE00
03FC00
03F800
03F000
03F000
03F000
07F000
0FF000
1FF000
3BF000
33F000
03F000
03F000
03F000
03F000
03F000
03F000
03F000
03F000
03F000
07F800
3FFF00
3FFF00
ENDCHAR

STARTCHAR acute
ENCODING 180
SWIDTH 333 0
DWIDTH 17 0
BBX 14 9 2 27
BITMAP
01E0
03F0
07F0
07F0
0FE0
1F80
1E00
3800
2000
ENDCHAR

STARTCHAR lcaron
ENCODING 181
SWIDTH 443 0
DWIDTH 22 0
BBX 23 37 0 0
BITMAP
000060
3FF1F0
3FF3F8
3FF3FC
07F3FC
03F1FC
03F1FC
03F01C
03F018
03F038
03F030
03F0E0
03F180
03F100
03F000
03F000
03F000
03F000
03F000
03F000
03F000
03F000
03F000
03F000
03F000
03F000
03F000
03F000
03F000
03F000
03F000
03F000
03F000
03F000
07F800
3FFF00
3FFF00
ENDCHAR

STARTCHAR sacute
ENCODING 182
SWIDTH 500 0
DWIDTH 25 0
BBX 24 37 1 -1
BITMAP
000700
000F80
001FC0
003F80
003F80
007E00
00F800
00E000
018000
000000
000000
000000
01FC30
07FFF0
0F07F0
1E01F0
1C00F0
3C0078
3C0038
3E0038
3FC000
3FFE00
1FFFC0
1FFFE0
0FFFF0
07FFF8
01FFF8
001FFC
3001FC
30007C
38003C
3C003C
3E0038
3F0078
3FC1F0
39FFE0
307F80
ENDCHAR

STARTCHAR caron
ENCODING 183
SWIDTH 333 0
DWIDTH 17 0
BBX 19 9 -1 27
BITMAP
600080
300300
3C0700
1E1E00
1F3E00
0FFE00
0FFC00
07FC00
07F800
ENDCHAR

STARTCHAR commaaccent
ENCODING 184
SWIDTH 333 0
DWIDTH 17 0
BBX 10 7 3 -10
BITMAP
3E00
3F00
3F00
1F00
0300
0600
1C00
ENDCHAR

STARTCHAR scaron
ENCODING 185
SWIDTH 500 0
DWIDTH 25 0
BBX 24 37 1 -1
BITMAP
080030
0C0060
0700E0
0783C0
03E7C0
03FF80
01FF80
01FF00
00FF00
000000
000000
000000
01FC30
07FFF0
0F07F0
1E01F0
1C00F0
3C0078
3C0038
3E0038
3FC000
3FFE00
1FFFC0
1FFFE0
0FFFF0
07FFF8
01FFF8
001FFC
3001FC
30007C
38003C
3C003C
3E0038
3F0078
3FC1F0
39FFE0
307F80
ENDCHAR

STARTCHAR scommaaccent
ENCODING 186
SWIDTH 500 0
DWIDTH 25 0
BBX 24 34 1 -10
BITMAP
01FE30
07FFF0
0F07F0
1E01F0
1C00F0
3C0078
3C0038
3E0038
3FC000
3FFE00
1FFFC0
1FFFE0
0FFFF0
07FFF8
01FFF8
001FFC
3001FC
30007C
38003C
3C003C
3E0038
3F0078
3FC1F0
39FFE0
307F80
000000
000000
003C00
007E00
007E00
003E00
000600
000400
001800
ENDCHAR

STARTCHAR tcaron
ENCODING 187
SWIDTH 549 0
DWIDTH 27 0
BBX 24 38 1 -1
BITMAP
000078
0000FC
0001FE
0001FE
0000FE
00307E
00300E
00300C
007018
007038
00F070
00F0C0
01F000
07F000
3FFFE0
3FFFE0
3FFFE0
03F000
03F000
03F000
03F000
03F000
03F000
03F000
03F000
03F000
03F000
03F000
03F030
03F030
03F030
03F030
03F030
03F860
01FCE0
01FFC0
00FF80
003F00
ENDCHAR

STARTCHAR zacute
ENCODING 188
SWIDTH 537 0
DWIDTH 27 0
BBX 25 36 1 0
BITMAP
0007C000
000FC000
001FC000
001FC000
003F8000
007E0000
00780000
00E00000
00000000
00000000
00000000
00000000
00000000
1FFFFE00
1FFFFE00
1F01FE00
1E03FC00
1C03F800
1C07F800
180FF000
181FE000
001FC000
003FC000
007F8000
007F0000
00FF0000
01FE0000
03FC0600
03F80600
07F80600
0FF00E00
1FE00E00
1FC01E00
3FC03E00
3FFFFE00
3FFFFE00
ENDCHAR

STARTCHAR hungarumlaut
ENCODING 189
SWIDTH 333 0
DWIDTH 17 0
BBX 24 9 0 27
BITMAP
00E078
01F0FC
03F9FC
07F1FC
07F3F8
0FC7E0
1F0780
380E00
200800
ENDCHAR

STARTCHAR zcaron
ENCODING 190
SWIDTH 537 0
DWIDTH 27 0
BBX 25 36 1 0
BITMAP
06003000
07007000
0380E000
03E3E000
01F7C000
01FFC000
00FF8000
00FF8000
007F0000
00000000
00000000
00000000
00000000
1FFFFE00
1FFFFE00
1F01FE00
1E03FC00
1C03F800
1C07F800
180FF000
181FE000
001FC000
003FC000
007F8000
007F0000
00FF0000
01FE0000
03FC0600
03F80600
07F80600
0FF00E00
1FE00E00
1FC01E00
3FC03E00
3FFFFE00
3FFFFE00
ENDCHAR

STARTCHAR zdotaccent
ENCODING 191
SWIDTH 537 0
DWIDTH 27 0
BBX 25 35 1 0
BITMAP
001C0000
003E0000
007F0000
007F0000
007F0000
003E0000
00080000
00000000
00000000
00000000
00000000
00000000
1FFFFE00
1FFFFE00
1F01FE00
1E03FC00
1C03F800
1C07F800
180FF000
181FE000
001FC000
003FC000
007F8000
00FF0000
00FE0000
01FE0000
03FC0600
03F80600
07F80600
0FF00E00
1FE00E00
1FC01E00
3FC03E00
3FFFFE00
3FFFFE00
ENDCHAR

STARTCHAR Racute
ENCODING 192
SWIDTH 815 0
DWIDTH 41 0
BBX 38 49 2 0
BITMAP
00000F0000
00001F8000
00003F8000
00007F0000
0000FE0000
0000F80000
0001E00000
0003800000
0000000000
0000000000
0000000000
0000000000
0000000000
7FFFFFC000
7FFFFFF000
07FE07FC00
03FC01FE00
03FC00FF00
03FC007F00
03FC007F80
03FC007F80
03FC007F80
03FC007F80
03FC007F80
03FC007F80
03FC00FF00
03FC00FE00
03FC01FC00
03FC0FF800
03FFFFC000
03FFFC0000
03FC1F8000
03FC0FC000
03FC07E000
03FC07F000
03FC03F800
03FC03F800
03FC03FC00
03FC03FC00
03FC01FC00
03FC01FE00
03FC01FE18
03FC01FE18
03FC01FE38
03FC00FF30
03FC00FFF0
07FE007FE0
7FFFE07FE0
7FFFE01F80
ENDCHAR

STARTCHAR Aacute
ENCODING 193
SWIDTH 759 0
DWIDTH 38 0
BBX 42 49 -2 0
BITMAP
000007C00000
00000FE00000
00000FE00000
00001FC00000
00003F800000
00003E000000
000078000000
0000E0000000
000000000000
000000000000
000000000000
000000000000
00001E000000
00001E000000
00001F000000
00003F000000
00003F000000
00007F800000
00007F800000
0000FFC00000
0000FFC00000
0000DFC00000
0001DFE00000
00019FE00000
00038FF00000
00038FF00000
000307F00000
000707F80000
000603F80000
000E03FC0000
000C03FC0000
001C01FE0000
001C01FE0000
001800FE0000
003800FF0000
003FFFFF0000
007FFFFF8000
0070007F8000
0060003F8000
00E0003FC000
00C0003FC000
01C0001FE000
01C0001FE000
03C0000FF000
03C0000FF000
07C0000FF000
0FF0001FFC00
7FFE01FFFF00
7FFE01FFFF00
ENDCHAR

STARTCHAR Acircumflex
ENCODING 194
SWIDTH 759 0
DWIDTH 38 0
BBX 42 50 -2 0
BITMAP
00007F800000
00007F800000
0000FFC00000
0000FFC00000
0001F7C00000
0001E1E00000
0003C0E00000
000300700000
000600100000
000000000000
000000000000
000000000000
000000000000
00001E000000
00001E000000
00001F000000
00003F000000
00003F000000
00007F800000
00007F800000
0000FFC00000
0000FFC00000
0000DFC00000
0001DFE00000
00019FE00000
00038FF00000
00038FF00000
000307F00000
000707F80000
000603F80000
000E03FC0000
000C03FC0000
001C01FE0000
001C01FE0000
001800FE0000
003800FF0000
003FFFFF0000
007FFFFF8000
0070007F8000
0060003F8000
00E0003FC000
00C0003FC000
01C0001FE000
01C0001FE000
03C0000FF000
03C0000FF000
07C0000FF000
0FF0001FFC00
7FFE01FFFF00
7FFE01FFFF00
ENDCHAR

STARTCHAR Abreve
ENCODING 195
SWIDTH 759 0
DWIDTH 38 0
BBX 42 49 -2 0
BITMAP
000200300000
000300300000
000380F00000
0003FFE00000
0001FFE00000
0000FFC00000
00007F800000
00001E000000
000000000000
000000000000
000000000000
000000000000
00001E000000
00001E000000
00001F000000
00003F000000
00003F000000
00007F800000
00007F800000
0000FFC00000
0000FFC00000
0000DFC00000
0001DFE00000
00019FE00000
00038FF00000
00030FF00000
000307F80000
000707F80000
000603F80000
000E03FC0000
000C03FC0000
001C01FE0000
001C01FE0000
001800FE0000
003800FF0000
003FFFFF0000
007FFFFF8000
0070007F8000
0060003F8000
00E0003FC000
00C0003FC000
01C0001FE000
01C0001FE000
03C0000FF000
03C0000FF000
07C0000FF000
0FF0001FFC00
7FFE01FFFF00
7FFE01FFFF00
ENDCHAR

STARTCHAR Adieresis
ENCODING 196
SWIDTH 759 0
DWIDTH 38 0
BBX 42 49 -2 0
BITMAP
000380700000
0007C0F80000
000FE1FC0000
000FE1FC0000
000FE1FC0000
0007C0F80000
000380700000
000000000000
000000000000
000000000000
000000000000
000000000000
00000E000000
00001E000000
00001F000000
00003F000000
00003F800000
00007F800000
00007F800000
00007FC00000
0000FFC00000
0000DFE00000
0001DFE00000
00018FE00000
00018FF00000
00038FF00000
000307F80000
000707F80000
000603FC0000
000E03FC0000
000E01FC0000
000C01FE0000
001C01FE0000
001800FF0000
003800FF0000
003FFFFF0000
007FFFFF8000
0070003F8000
0060003FC000
00E0003FC000
00C0001FE000
01C0001FE000
01C0000FE000
03C0000FF000
03C0000FF000
07C00007F800
0FF0000FFC00
7FFE00FFFF80
7FFE00FFFF80
ENDCHAR

STARTCHAR Lacute
ENCODING 197
SWIDTH 722 0
DWIDTH 36 0
BBX 36 49 0 0
BITMAP
00001E0000
00003F0000
00007F0000
0000FF0000
0000FC0000
0001F80000
0003C00000
0003000000
0000000000
0000000000
0000000000
0000000000
0000000000
3FFFF00000
3FFFF00000
03FF000000
01FE000000
01FE000000
01FE000000
01FE000000
01FE000000
01FE000000
01FE000000
01FE000000
01FE000000
01FE000000
01FE000000
01FE000000
01FE000000
01FE000000
01FE000000
01FE000000
01FE000000
01FE000000
01FE000000
01FE0000C0
01FE0000C0
01FE0000C0
01FE0001C0
01FE0001C0
01FE0001C0
01FE0003C0
01FE0003C0
01FE0007C0
01FE000FC0
01FE001FC0
03FF007FC0
3FFFFFFFC0
3FFFFFFFC0
ENDCHAR

STARTCHAR Cacute
ENCODING 198
SWIDTH 778 0
DWIDTH 39 0
BBX 35 50 3 -1
BITMAP
00003C0000
00007E0000
0000FE0000
0001FC0000
0001F80000
0003E00000
0007800000
000E000000
0000000000
0000000000
0000000000
0000000000
0003FE0300
001FFF8700
003F83E700
00FE00FF00
01FC007F00
03F8003F00
07F0001F00
0FF0000F00
0FE0000F00
1FE0000700
1FE0000700
3FE0000700
3FC0000300
3FC0000300
3FC0000000
7FC0000000
7FC0000000
7FC0000000
7FC0000000
7FC0000000
7FC0000000
7FC0000000
7FC0000000
3FC0000000
3FC0000180
3FE0000180
3FE0000380
1FE0000300
1FE0000300
0FF0000700
07F0000600
07F8000E00
03FC001C00
01FE003800
00FF81F000
003FFFE000
000FFF8000
0001FC0000
ENDCHAR

STARTCHAR Ccedilla
ENCODING 199
SWIDTH 778 0
DWIDTH 39 0
BBX 35 46 3 -9
BITMAP
0003FE0300
001FFF8700
003F83E700
00FE00FF00
01FC003F00
03F8001F00
07F0001F00
07F0000F00
0FF0000700
1FE0000700
1FE0000700
1FE0000300
3FC0000300
3FC0000380
3FC0000000
7FC0000000
7FC0000000
7FC0000000
7FC0000000
7FC0000000
7FC0000000
7FC0000000
7FC0000000
3FC0000000
3FC0000180
3FE0000180
3FE0000180
1FE0000380
1FE0000300
0FF0000700
0FF0000600
07F8000E00
03FC001C00
01FE003800
00FF80F000
003FFFE000
000FFF8000
0001FC0000
0001F80000
0003FC0000
0003FE0000
0000FE0000
0000FE0000
0001FC0000
001FF80000
001FE00000
ENDCHAR

STARTCHAR Ccaron
ENCODING 200
SWIDTH 778 0
DWIDTH 39 0
BBX 35 51 3 -1
BITMAP
0040008000
0020018000
0038070000
001C0F0000
001E1E0000
001FFE0000
000FFC0000
000FFC0000
0007F80000
0007F80000
0000000000
0000000000
0000000000
0003FE0300
001FFF8700
003F83E700
00FE00FF00
01FC007F00
03F8003F00
07F0001F00
0FF0000F00
0FE0000F00
1FE0000700
1FE0000700
3FE0000700
3FC0000300
3FC0000300
3FC0000000
7FC0000000
7FC0000000
7FC0000000
7FC0000000
7FC0000000
7FC0000000
7FC0000000
7FC0000000
3FC0000000
3FC0000180
3FE0000180
3FE0000380
1FE0000300
1FE0000300
0FF0000700
07F0000600
07F8000E00
03FC001C00
01FE003800
00FF81F000
003FFFE000
000FFF8000
0001FC0000
ENDCHAR

STARTCHAR Eacute
ENCODING 201
SWIDTH 759 0
DWIDTH 38 0
BBX 37 49 0 0
BITMAP
00001E0000
00003F0000
00007F0000
0000FF0000
0000FE0000
0001F80000
0003C00000
0003000000
0000000000
0000000000
0000000000
0000000000
0000000000
3FFFFFFF80
3FFFFFFF80
03FF007F80
01FE001F80
01FE000780
01FE000780
01FE0003C0
01FE0003C0
01FE0001C0
01FE0001C0
01FE0181C0
01FE0181C0
01FE0180C0
01FE038000
01FE038000
01FE078000
01FE1F8000
01FFFF8000
01FFFF8000
01FE1F8000
01FE078000
01FE038000
01FE038000
01FE018060
01FE018060
01FE0180E0
01FE0000E0
01FE0000E0
01FE0001E0
01FE0001E0
01FE0003E0
01FE0007E0
01FE001FE0
03FF007FE0
3FFFFFFFE0
3FFFFFFFC0
ENDCHAR

STARTCHAR Eogonek
ENCODING 202
SWIDTH 759 0
DWIDTH 38 0
BBX 37 48 0 -12
BITMAP
3FFFFFFF80
3FFFFFFF80
03FF007F80
01FE001F80
01FE000F80
01FE000780
01FE000380
01FE000380
01FE0001C0
01FE0001C0
01FE0181C0
01FE0181C0
01FE0380C0
01FE038000
01FE038000
01FE078000
01FE1F8000
01FFFF8000
01FFFF8000
01FE1F8000
01FE078000
01FE038000
01FE038000
01FE038060
01FE018060
01FE0180E0
01FE0000E0
01FE0000E0
01FE0001E0
01FE0001E0
01FE0003E0
01FE0007E0
01FE001FE0
03FF007FE0
3FFFFFFFC0
3FFFFFFFC0
0000001C00
0000003800
0000007000
000000F000
000000F000
000000F800
000000F800
000000FC00
0000007F00
0000003FE0
0000001FE0
0000000300
ENDCHAR

STARTCHAR Edieresis
ENCODING 203
SWIDTH 759 0
DWIDTH 38 0
BBX 36 48 0 0
BITMAP
001C038000
003E07C000
007F0FE000
007F0FE000
007F0FE000
003E07C000
0008010000
0000000000
0000000000
0000000000
0000000000
0000000000
3FFFFFFF80
3FFFFFFF80
03FF007F80
01FE001F80
01FE000F80
01FE000780
01FE000380
01FE000380
01FE000380
01FE000180
01FE0181C0
01FE0181C0
01FE0381C0
01FE038000
01FE078000
01FE078000
01FE1F8000
01FFFF8000
01FFFF8000
01FE1F8000
01FE078000
01FE038000
01FE038000
01FE038060
01FE0180E0
01FE0180E0
01FE0000E0
01FE0001E0
01FE0001E0
01FE0003E0
01FE0003E0
01FE0007C0
01FE001FC0
03FF007FC0
3FFFFFFFC0
3FFFFFFFC0
ENDCHAR

STARTCHAR Ecaron
ENCODING 204
SWIDTH 759 0
DWIDTH 38 0
BBX 37 50 0 0
BITMAP
0020000000
001800C000
001C018000
000E078000
000F8F0000
0007DF0000
0007FE0000
0003FE0000
0003FC0000
0001FC0000
0000000000
0000000000
0000000000
0000000000
3FFFFFFF80
3FFFFFFF80
03FF007F80
01FE001F80
01FE000780
01FE000780
01FE0003C0
01FE0003C0
01FE0001C0
01FE0001C0
01FE0181C0
01FE0181C0
01FE0180C0
01FE038000
01FE038000
01FE078000
01FE1F8000
01FFFF8000
01FFFF8000
01FE1F8000
01FE078000
01FE038000
01FE038000
01FE018060
01FE018060
01FE0180E0
01FE0000E0
01FE0000E0
01FE0001E0
01FE0001E0
01FE0003E0
01FE0007E0
01FE001FE0
03FF007FE0
3FFFFFFFE0
3FFFFFFFC0
ENDCHAR

STARTCHAR Iacute
ENCODING 205
SWIDTH 444 0
DWIDTH 22 0
BBX 22 49 0 0
BITMAP
000F00
001F80
003F80
007F00
00FE00
00F800
01E000
038000
000000
000000
000000
000000
000000
3FFFF0
3FFFF0
03FE00
01FE00
01FE00
01FE00
01FE00
01FE00
01FE00
01FE00
01FE00
01FE00
01FE00
01FE00
01FE00
01FE00
01FE00
01FE00
01FE00
01FE00
01FE00
01FE00
01FE00
01FE00
01FE00
01FE00
01FE00
01FE00
01FE00
01FE00
01FE00
01FE00
01FE00
03FF00
3FFFF0
3FFFF0
ENDCHAR

STARTCHAR Icircumflex
ENCODING 206
SWIDTH 444 0
DWIDTH 22 0
BBX 22 50 0 0
BITMAP
01FE00
01FE00
03FF00
03FF00
07FF80
078780
0F03C0
0E01C0
180060
100020
000000
000000
000000
000000
3FFFF0
3FFFF0
03FE00
01FE00
01FE00
01FE00
01FE00
01FE00
01FE00
01FE00
01FE00
01FE00
01FE00
01FE00
01FE00
01FE00
01FE00
01FE00
01FE00
01FE00
01FE00
01FE00
01FE00
01FE00
01FE00
01FE00
01FE00
01FE00
01FE00
01FE00
01FE00
01FE00
01FE00
03FF00
3FFFF0
3FFFF0
ENDCHAR

STARTCHAR Dcaron
ENCODING 207
SWIDTH 833 0
DWIDTH 42 0
BBX 40 50 0 0
BITMAP
0008001000
0006003000
0007006000
000381E000
0003E3C000
0001F7C000
0001FF8000
0000FF8000
0000FF0000
00007F0000
0000000000
0000000000
0000000000
0000000000
3FFFFFC000
3FFFFFF800
03FF03FE00
01FE007F80
01FE003FC0
01FE001FE0
01FE000FE0
01FE000FF0
01FE0007F8
01FE0007F8
01FE0007FC
01FE0003FC
01FE0003FC
01FE0003FE
01FE0003FE
01FE0003FE
01FE0003FE
01FE0003FE
01FE0003FE
01FE0003FE
01FE0003FE
01FE0003FE
01FE0003FC
01FE0003FC
01FE0003FC
01FE0003FC
01FE0007F8
01FE0007F8
01FE0007F0
01FE000FE0
01FE001FE0
01FE003FC0
01FE007F80
03FF03FE00
3FFFFFF800
3FFFFFE000
ENDCHAR

STARTCHAR Dcroat
ENCODING 208
SWIDTH 833 0
DWIDTH 42 0
BBX 40 36 0 0
BITMAP
3FFFFFC000
3FFFFFF800
03FF01FE00
01FE007F80
01FE001FC0
01FE001FE0
01FE000FF0
01FE0007F0
01FE0007F8
01FE0007F8
01FE0003FC
01FE0003FC
01FE0003FC
01FE0003FE
01FE0003FE
01FE0003FE
3FFFFC03FE
3FFFFC03FE
3FFFFC03FE
01FE0003FE
01FE0003FE
01FE0003FE
01FE0003FC
01FE0003FC
01FE0003FC
01FE0003F8
01FE0007F8
01FE0007F8
01FE0007F0
01FE000FE0
01FE001FE0
01FE003FC0
01FE007F80
03FF03FE00
3FFFFFF800
3FFFFFE000
ENDCHAR

STARTCHAR Nacute
ENCODING 209
SWIDTH 833 0
DWIDTH 42 0
BBX 41 49 0 0
BITMAP
000007C00000
00000FC00000
00001FC00000
00001FC00000
00003F800000
00007E000000
000078000000
0000E0000000
000000000000
000000000000
000000000000
000000000000
000000000000
7FF8001FFF00
7FFC001FFF00
07FE0007FC00
01FF0001F000
01FF0001F000
01FF8000E000
01FFC000E000
01FFE000E000
01DFE000E000
01DFF000E000
01CFF800E000
01C7FC00E000
01C3FE00E000
01C1FE00E000
01C1FF00E000
01C0FF80E000
01C07FC0E000
01C03FE0E000
01C03FE0E000
01C01FF0E000
01C00FF8E000
01C007FCE000
01C007FCE000
01C003FEE000
01C001FFE000
01C000FFE000
01C0007FE000
01C0007FE000
01C0003FE000
01C0001FE000
01C0000FE000
03E0000FE000
03F00007E000
0FF80003E000
7FFF0001E000
7FFF0000E000
ENDCHAR

STARTCHAR Ncaron
ENCODING 210
SWIDTH 833 0
DWIDTH 42 0
BBX 41 50 0 0
BITMAP
000C00080000
000600300000
000700700000
0003C0E00000
0003E3E00000
0001F7C00000
0001FFC00000
0000FF800000
0000FF800000
00007F000000
000000000000
000000000000
000000000000
000000000000
7FF8001FFF00
7FFC001FFF00
07FE0007FC00
01FF0001F000
01FF0001F000
01FF8000E000
01FFC000E000
01FFE000E000
01DFE000E000
01DFF000E000
01CFF800E000
01C7FC00E000
01C3FE00E000
01C1FE00E000
01C1FF00E000
01C0FF80E000
01C07FC0E000
01C03FE0E000
01C03FE0E000
01C01FF0E000
01C00FF8E000
01C007FCE000
01C007FCE000
01C003FEE000
01C001FFE000
01C000FFE000
01C0007FE000
01C0007FE000
01C0003FE000
01C0001FE000
01C0000FE000
03E0000FE000
03F00007E000
0FF80003E000
7FFF0001E000
7FFF0000E000
ENDCHAR

STARTCHAR Oacute
ENCODING 211
SWIDTH 833 0
DWIDTH 42 0
BBX 39 49 1 -1
BITMAP
00000F8000
00001F8000
00003F8000
00003F8000
00007F0000
0000FC0000
0000E00000
0001800000
0000000000
0000000000
0000000000
0000000000
0003FF8000
001FFFF000
003F83F800
00FE00FE00
01FC003F00
03F8003F80
07F0001FC0
0FF0000FE0
0FE0000FE0
1FE0000FF0
1FE0000FF0
3FC00007F8
3FC00007F8
3FC00007F8
3FC00007FC
7FC00007FC
7FC00007FC
7FC00007FC
7FC00007FC
7FC00007FC
7FC00007FC
7FC00007FC
3FC00007FC
3FC00007F8
3FC00007F8
3FC00007F8
1FE0000FF0
1FE0000FF0
0FE0000FE0
0FF0001FE0
07F0001FC0
03F8003F80
01F8007F00
00FE00FE00
003F83F800
000FFFF000
0003FF8000
ENDCHAR

STARTCHAR Ocircumflex
ENCODING 212
SWIDTH 833 0
DWIDTH 42 0
BBX 39 50 1 -1
BITMAP
0000FE0000
0001FF0000
0001FF0000
0003FF8000
0003EF8000
0007C7C000
000701C000
000E00E000
000C006000
0000000000
0000000000
0000000000
0000000000
0003FF8000
001FFFF000
003F83F800
00FE00FE00
01FC003F00
03F8003F80
07F0001FC0
0FF0000FE0
0FE0000FE0
1FE0000FF0
1FE0000FF0
3FC00007F8
3FC00007F8
3FC00007F8
3FC00007FC
7FC00007FC
7FC00007FC
7FC00007FC
7FC00007FC
7FC00007FC
7FC00007FC
7FC00007FC
3FC00007FC
3FC00007F8
3FC00007F8
3FC00007F8
1FE0000FF0
1FE0000FF0
0FE0000FE0
0FF0001FE0
07F0001FC0
03F8003F80
01F8007F00
00FE00FE00
003F83F800
000FFFF000
0003FF8000
ENDCHAR

STARTCHAR Ohungarumlaut
ENCODING 213
SWIDTH 833 0
DWIDTH 42 0
BBX 39 49 1 -1
BITMAP
00001E0F80
00003F1F80
00007F3F80
0000FE3F80
0001FC7F00
0001F0FC00
0003C0F000
0007018000
0000000000
0000000000
0000000000
0000000000
0003FF8000
001FFFF000
003F83F800
00FE00FE00
01FC003F00
03F8003F80
07F0001FC0
0FF0000FE0
0FE0000FE0
1FE0000FF0
1FE0000FF0
3FC00007F8
3FC00007F8
3FC00007F8
3FC00007FC
7FC00007FC
7FC00007FC
7FC00007FC
7FC00007FC
7FC00007FC
7FC00007FC
7FC00007FC
3FC00007FC
3FC00007F8
3FC00007F8
3FC00007F8
1FE0000FF0
1FE0000FF0
0FE0000FE0
0FF0001FE0
07F0001FC0
03F8003F80
01F8007F00
00FE00FE00
003F83F800
000FFFF000
0003FF8000
ENDCHAR

STARTCHAR Odieresis
ENCODING 214
SWIDTH 833 0
DWIDTH 42 0
BBX 39 49 2 -1
BITMAP
000E01C000
001F03E000
001F87F000
001F87F000
001F87F000
001F03E000
000E01C000
0000000000
0000000000
0000000000
0000000000
0000000000
0003FF8000
001FFFE000
007F83F800
00FC00FE00
01F8007F00
03F0003F80
07F0001FC0
0FE0001FE0
0FE0000FE0
1FE0000FF0
1FC0000FF0
3FC0000FF8
3FC00007F8
3FC00007F8
3FC00007FC
7FC00007FC
7FC00007FC
7FC00007FC
7FC00007FC
7FC00007FC
7FC00007FC
7FC00007FC
3FC00007FC
3FC00007F8
3FC00007F8
3FC0000FF8
1FC0000FF0
1FE0000FF0
0FE0000FE0
0FE0001FC0
07F0001FC0
03F0003F80
01F8007F00
00FC00FE00
003F03F800
001FFFE000
0003FF8000
ENDCHAR

STARTCHAR multiply
ENCODING 215
SWIDTH 650 0
DWIDTH 32 0
BBX 29 25 2 4
BITMAP
0C000180
1E0003C0
3F0007E0
3F800FC0
1FC01F80
0FE03F00
07F07E00
03F8FC00
01FDF800
00FFF000
007FE000
003FC000
001FC000
003FE000
007FF000
00FFF800
01F9FC00
03F0FE00
07E07F00
0FC03F80
1F801FC0
3F000FE0
3E0007E0
1C0003C0
08000180
ENDCHAR

STARTCHAR Rcaron
ENCODING 216
SWIDTH 815 0
DWIDTH 41 0
BBX 38 50 2 0
BITMAP
0010002000
0018006000
000E01C000
000F03C000
0007878000
0007FF8000
0003FF0000
0003FF0000
0001FE0000
0001FE0000
0000000000
0000000000
0000000000
0000000000
7FFFFFC000
7FFFFFF000
07FE07FC00
03FC01FE00
03FC00FF00
03FC007F00
03FC007F80
03FC007F80
03FC007F80
03FC007F80
03FC007F80
03FC007F80
03FC00FF00
03FC00FE00
03FC01FC00
03FC0FF800
03FFFFC000
03FFFC0000
03FC1F8000
03FC0FC000
03FC07E000
03FC07F000
03FC03F800
03FC03F800
03FC03FC00
03FC03FC00
03FC01FC00
03FC01FE00
03FC01FE18
03FC01FE18
03FC01FE38
03FC00FF30
03FC00FFF0
07FE007FE0
7FFFE07FE0
7FFFE01F80
ENDCHAR

STARTCHAR Uring
ENCODING 217
SWIDTH 833 0
DWIDTH 42 0
BBX 42 51 0 -1
BITMAP
00001F000000
00007F800000
000071C00000
0000E0C00000
0000C0C00000
0000C0C00000
0000E0C00000
0000F1C00000
00007F800000
00001E000000
000000000000
000000000000
000000000000
000000000000
7FFFF01FFF00
7FFFF01FFF00
07FE0007FC00
03FC0001F000
03FC0001F000
03FC0000E000
03FC0000E000
03FC0000E000
03FC0000E000
03FC0000E000
03FC0000E000
03FC0000E000
03FC0000E000
03FC0000E000
03FC0000E000
03FC0000E000
03FC0000E000
03FC0000E000
03FC0000E000
03FC0000E000
03FC0000E000
03FC0000E000
03FC0000E000
03FC0000E000
03FC0000E000
03FC0000E000
03FC0000E000
03FE0001E000
01FE0001C000
01FE0001C000
01FF0003C000
00FF80078000
00FFE01F0000
003FFFFE0000
001FFFFC0000
0007FFF00000
00007F800000
ENDCHAR

STARTCHAR Uacute
ENCODING 218
SWIDTH 833 0
DWIDTH 42 0
BBX 42 50 0 -1
BITMAP
000007C00000
00000FC00000
00000FE00000
00001FC00000
00003F800000
00007E000000
000078000000
0000E0000000
000000000000
000000000000
000000000000
000000000000
000000000000
7FFFE01FFF00
7FFFE01FFF00
07FE0007FC00
03FC0001F000
03FC0001F000
03FC0000E000
03FC0000E000
03FC0000E000
03FC0000E000
03FC0000E000
03FC0000E000
03FC0000E000
03FC0000E000
03FC0000E000
03FC0000E000
03FC0000E000
03FC0000E000
03FC0000E000
03FC0000E000
03FC0000E000
03FC0000E000
03FC0000E000
03FC0000E000
03FC0000E000
03FC0000E000
03FC0000E000
03FC0000E000
03FC0001E000
01FE0001C000
01FE0003C000
01FF0003C000
00FF800F8000
00FFE01F0000
003FFFFE0000
001FFFFC0000
0007FFF00000
0000FF800000
ENDCHAR

STARTCHAR Uhungarumlaut
ENCODING 219
SWIDTH 833 0
DWIDTH 42 0
BBX 42 50 0 -1
BITMAP
00000F03C000
00001F87E000
00003F8FE000
00007F9FC000
00007F3F8000
0000FC3E0000
0001E0780000
000380E00000
000000000000
000000000000
000000000000
000000000000
000000000000
7FFFE01FFF00
7FFFE01FFF00
07FE0007FC00
03FC0001F000
03FC0001F000
03FC0000E000
03FC0000E000
03FC0000E000
03FC0000E000
03FC0000E000
03FC0000E000
03FC0000E000
03FC0000E000
03FC0000E000
03FC0000E000
03FC0000E000
03FC0000E000
03FC0000E000
03FC0000E000
03FC0000E000
03FC0000E000
03FC0000E000
03FC0000E000
03FC0000E000
03FC0000E000
03FC0000E000
03FC0000E000
03FC0001E000
01FE0001C000
01FE0003C000
01FF0003C000
00FF800F8000
00FFE01F0000
003FFFFE0000
001FFFFC0000
0007FFF00000
0000FF800000
ENDCHAR

STARTCHAR Udieresis
ENCODING 220
SWIDTH 833 0
DWIDTH 42 0
BBX 42 49 0 -1
BITMAP
000380700000
0007C0F80000
000FE1FC0000
000FE1FC0000
000FE1FC0000
0007C0F80000
000100200000
000000000000
000000000000
000000000000
000000000000
000000000000
7FFFF01FFF00
7FFFF01FFF00
07FE0007FC00
03FC0001F000
03FC0001F000
03FC0000E000
03FC0000E000
03FC0000E000
03FC0000E000
03FC0000E000
03FC0000E000
03FC0000E000
03FC0000E000
03FC0000E000
03FC0000E000
03FC0000E000
03FC0000E000
03FC0000E000
03FC0000E000
03FC0000E000
03FC0000E000
03FC0000E000
03FC0000E000
03FC0000E000
03FC0000E000
03FC0000E000
03FC0000E000
03FC0001E000
01FE0001C000
01FE0001C000
01FF0003C000
00FF80078000
00FFE01F0000
003FFFFE0000
001FFFFC0000
0007FFF00000
00007F800000
ENDCHAR

STARTCHAR Yacute
ENCODING 221
SWIDTH 722 0
DWIDTH 36 0
BBX 39 49 -1 0
BITMAP
00000F0000
00001F8000
00003F8000
00007F8000
00007F0000
0000FC0000
0001E00000
0001800000
0000000000
0000000000
0000000000
0000000000
0000000000
7FFFE0FFFC
7FFFE0FFFC
0FFE001FE0
07FC000F80
03FE000F00
01FE000E00
01FF000E00
00FF001C00
00FF801C00
007F803800
003FC03800
003FE07000
001FE07000
001FF0E000
000FF0E000
0007F9C000
0007F9C000
0003FF8000
0003FF8000
0001FF0000
0001FF0000
0000FF0000
0000FF0000
0000FF0000
0000FF0000
0000FF0000
0000FF0000
0000FF0000
0000FF0000
0000FF0000
0000FF0000
0000FF0000
0000FF0000
0001FF8000
003FFFFC00
003FFFFC00
ENDCHAR

STARTCHAR Tcommaaccent
ENCODING 222
SWIDTH 722 0
DWIDTH 36 0
BBX 36 46 0 -10
BITMAP
3FFFFFFFC0
3FFFFFFFC0
3FC7FE3FC0
3F03FC0FC0
3E03FC07C0
3C03FC03C0
3C03FC03C0
3803FC01C0
3803FC01C0
3803FC01C0
3003FC00C0
3003FC00C0
7003FC00E0
7003FC00E0
0003FC0000
0003FC0000
0003FC0000
0003FC0000
0003FC0000
0003FC0000
0003FC0000
0003FC0000
0003FC0000
0003FC0000
0003FC0000
0003FC0000
0003FC0000
0003FC0000
0003FC0000
0003FC0000
0003FC0000
0003FC0000
0003FC0000
0007FE0000
00FFFFF000
00FFFFF000
0000000000
0000000000
0000000000
0000F00000
0001F80000
0001F80000
0000F80000
0000180000
0000300000
0000600000
ENDCHAR

STARTCHAR germandbls
ENCODING 223
SWIDTH 611 0
DWIDTH 31 0
BBX 31 37 0 0
BITMAP
000FFC00
003FFF00
00FE1F80
01F80FC0
03F007E0
03F007E0
07F007F0
07E007F0
07E007F0
07E007F0
07E007E0
07E007E0
07E00FC0
07E01F80
07E0FE00
07E0F800
07E03F00
07E007C0
07E007E0
07E003F0
07E003F0
07E003F8
07E003F8
07E003F8
07E003F8
07E003F8
07E003F8
07E003F8
07E0C3F8
07E1E3F0
07E3F3F0
07E3F3F0
07E3F3E0
07E3E3C0
0FF1E780
3FF8FF00
3FF83C00
ENDCHAR

STARTCHAR racute
ENCODING 224
SWIDTH 519 0
DWIDTH 26 0
BBX 26 36 0 0
BITMAP
0003C000
0007E000
000FE000
001FE000
001FC000
003F0000
00780000
00600000
00000000
00000000
00000000
00000000
00307C00
3FF0FE00
3FF19F00
07F31F80
03F61F80
03F61F00
03FC1F00
03FC0E00
03FC0000
03F80000
03F80000
03F80000
03F80000
03F80000
03F80000
03F80000
03F80000
03F80000
03F80000
03F80000
03F80000
03F80000
3FFFC000
3FFFC000
ENDCHAR

STARTCHAR aacute
ENCODING 225
SWIDTH 611 0
DWIDTH 31 0
BBX 31 37 0 -1
BITMAP
0000F000
0001F800
0001F800
0003F800
0007F000
0007C000
000F0000
001C0000
00100000
00000000
00000000
00000000
003FE000
00FFF800
03E1FC00
07C07E00
07C07F00
0FE03F00
0FE03F00
0FE03F00
07C03F00
01803F00
0001FF00
003FFF00
00FE3F00
07F03F00
0FE03F00
1FC03F00
1F803F00
3F803F00
3F807F00
3F807F00
3FC0FF00
3FE3BF80
1FFF1FF8
0FFE0FF0
03F807C0
ENDCHAR

STARTCHAR acircumflex
ENCODING 226
SWIDTH 611 0
DWIDTH 31 0
BBX 31 37 0 -1
BITMAP
000FF000
001FF000
001FF000
003FF800
003C7800
00783C00
00700C00
00C00600
00800200
00000000
00000000
00000000
003FE000
00FFF800
03E1FC00
07C07E00
07C07F00
0FE03F00
0FE03F00
0FE03F00
07C03F00
01803F00
0001FF00
003FFF00
00FE3F00
07F03F00
0FE03F00
1FC03F00
1F803F00
3F803F00
3F807F00
3F807F00
3FC0FF00
3FE3BF80
1FFF1FF8
0FFE0FF0
03F807C0
ENDCHAR

STARTCHAR abreve
ENCODING 227
SWIDTH 611 0
DWIDTH 31 0
BBX 31 36 0 -1
BITMAP
00C00400
00C00C00
00F01C00
007FFC00
007FF800
003FF000
001FE000
00078000
00000000
00000000
00000000
003FE000
00FFF800
03E1FC00
07C07E00
07C07F00
0FE03F00
0FE03F00
0FE03F00
07C03F00
01803F00
0001FF00
003FFF00
00FE3F00
07F03F00
0FE03F00
1FC03F00
1F803F00
3F803F00
3F807F00
3F807F00
3FC0FF00
3FE3BF80
1FFF1FF8
0FFE0FF0
03F807C0
ENDCHAR

STARTCHAR adieresis
ENCODING 228
SWIDTH 611 0
DWIDTH 31 0
BBX 32 36 0 -1
BITMAP
00700E00
00F81F00
01FC3F80
01FC3F80
01FC3F80
00F81F00
00700E00
00000000
00000000
00000000
00000000
003FF000
00FFFC00
03E0FE00
07C07F00
07C03F80
0FE01F80
0FE01F80
0FE01F80
07C01F80
01801F80
0001FF80
001FFF80
00FF1F80
03F81F80
0FE01F80
1FC01F80
1FC01F80
3F803F80
3F803F80
3F807F80
3FC0FF80
3FE1DFC0
1FFF8FFC
0FFE07F8
03F803E0
ENDCHAR

STARTCHAR lacute
ENCODING 229
SWIDTH 352 0
DWIDTH 18 0
BBX 17 48 0 0
BITMAP
003800
007C00
00FC00
01FC00
03FC00
03F000
07C000
0F0000
080000
000000
000000
01F000
3FF000
3FF000
07F000
03F000
03F000
03F000
03F000
03F000
03F000
03F000
03F000
03F000
03F000
03F000
03F000
03F000
03F000
03F000
03F000
03F000
03F000
03F000
03F000
03F000
03F000
03F000
03F000
03F000
03F000
03F000
03F000
03F000
03F000
07F800
3FFF00
3FFF00
ENDCHAR

STARTCHAR cacute
ENCODING 230
SWIDTH 556 0
DWIDTH 28 0
BBX 27 37 1 -1
BITMAP
0001C000
0007E000
0007F000
000FE000
001FE000
001F8000
003C0000
00700000
00400000
00000000
00000000
00000000
001FF000
00FFFC00
01F83F00
07F01F00
0FE01F80
0FC03F80
1FC03F80
1F803F80
3F803F80
3F801F00
3F800400
7F800000
7F800000
7F800000
7F800000
7F800000
3F800080
3FC001C0
3FC00180
1FC00380
1FE00700
0FF00E00
07FC3C00
01FFF800
007FC000
ENDCHAR

STARTCHAR ccedilla
ENCODING 231
SWIDTH 556 0
DWIDTH 28 0
BBX 27 33 1 -9
BITMAP
001FE000
00FFF800
03F87E00
07E03E00
0FC03F00
0FC03F00
1F807F00
1F807F00
3F807F00
3F803E00
3F800800
7F800000
7F800000
7F800000
7F800000
7F800000
3F800100
3F800180
3FC00380
1FC00700
1FE00E00
0FF01C00
07FC7800
03FFF000
007F8000
003E0000
007F8000
007FC000
001FC000
001FC000
003FC000
03FF8000
03FE0000
ENDCHAR

STARTCHAR ccaron
ENCODING 232
SWIDTH 556 0
DWIDTH 28 0
BBX 27 37 1 -1
BITMAP
06000800
03001800
03C07000
01E0F000
01FBE000
00FFE000
00FFC000
007FC000
007F8000
00000000
00000000
00000000
001FF000
00FFFC00
01F83F00
07F01F00
0FE01F80
0FC03F80
1FC03F80
1F803F80
3F803F80
3F801F00
3F800400
7F800000
7F800000
7F800000
7F800000
7F800000
3F800080
3FC001C0
3FC00180
1FC00380
1FE00700
0FF00E00
07FC3C00
01FFF800
007FC000
ENDCHAR

STARTCHAR eacute
ENCODING 233
SWIDTH 574 0
DWIDTH 29 0
BBX 27 36 1 -1
BITMAP
0003C000
0007E000
0007E000
000FE000
001FC000
003F0000
003C0000
00700000
00400000
00000000
00000000
00000000
003FC000
01FFF000
03F0FC00
07E07C00
0FC03E00
1FC03F00
1F801F00
3F801F80
3F801F80
3F803F80
3FFFFF80
3FFFFF80
3F800000
3F800000
3F800000
3F800000
3FC00100
1FC00180
1FE00380
0FE00700
07F00E00
03FC3C00
01FFF800
003FE000
ENDCHAR

STARTCHAR eogonek
ENCODING 234
SWIDTH 574 0
DWIDTH 29 0
BBX 27 35 1 -12
BITMAP
007FC000
01FFF000
03F0F800
07E07C00
0FC03E00
1FC03E00
1F803F00
3F803F00
3F803F00
3F803F80
7FFFFF80
7FFFFF80
7F800000
7F800000
3F800000
3F800000
3F800100
1FC00380
1FC00300
0FE00700
07F00E00
03FC7C00
01FFF800
007FE000
000E0000
001E0000
001C0000
003C0000
003E0000
003E0000
003F0000
003F8000
001FF800
000FFC00
0003F000
ENDCHAR

STARTCHAR edieresis
ENCODING 235
SWIDTH 574 0
DWIDTH 29 0
BBX 27 36 1 -1
BITMAP
01C03800
03E07C00
07F0FE00
07F0FE00
07F0FE00
03E07C00
01C03800
00000000
00000000
00000000
00000000
003FC000
00FFF000
03F8FC00
07E03E00
0FE03E00
0FC01F00
1FC01F00
1FC01F80
3F801F80
3F801F80
3F803F80
3FFFFF80
3FFFFFC0
3F800000
3F800000
3F800000
3FC00000
1FC00080
1FC001C0
0FE00380
0FE00300
07F00F00
03FC3E00
00FFF800
003FE000
ENDCHAR

STARTCHAR ecaron
ENCODING 236
SWIDTH 574 0
DWIDTH 29 0
BBX 27 36 1 -1
BITMAP
02000800
03003800
01C07000
01E0F000
01FBE000
00FFE000
00FFC000
007FC000
007F8000
00000000
00000000
00000000
003FC000
01FFF000
03F0FC00
07E07C00
0FC03E00
1FC03F00
1F801F00
3F801F80
3F801F80
3F803F80
3FFFFF80
3FFFFF80
3F800000
3F800000
3F800000
3F800000
3FC00100
1FC00180
1FE00380
0FE00700
07F00E00
03FC3C00
01FFF800
003FE000
ENDCHAR

STARTCHAR iacute
ENCODING 237
SWIDTH 370 0
DWIDTH 19 0
BBX 16 36 2 0
BITMAP
00F8
01FC
01FC
03F8
07F0
07C0
0F00
1800
0000
0000
0000
0000
07E0
7FE0
7FE0
0FE0
07E0
07E0
07E0
07E0
07E0
07E0
07E0
07E0
07E0
07E0
07E0
07E0
07E0
07E0
07E0
07E0
07E0
0FF0
7FFE
7FFE
ENDCHAR

STARTCHAR icircumflex
ENCODING 238
SWIDTH 370 0
DWIDTH 19 0
BBX 20 36 0 0
BITMAP
03FC00
03FC00
07FE00
07FE00
0F9F00
0E0780
1C0380
1800C0
200040
000000
000000
000000
00F800
1FF800
1FF800
03F800
01F800
01F800
01F800
01F800
01F800
01F800
01F800
01F800
01F800
01F800
01F800
01F800
01F800
01F800
01F800
01F800
01F800
03FC00
1FFF80
1FFF80
ENDCHAR

STARTCHAR dcaron
ENCODING 239
SWIDTH 754 0
DWIDTH 38 0
BBX 37 38 2 -1
BITMAP
0000000180
0001FFC7C0
0001FFCFE0
00003FCFF0
00001FCFF0
00000FC7F0
00000FC3F0
00000FC060
00000FC060
00000FC0C0
00000FC180
00000FC300
00000FC600
007E0FC000
01FF8FC000
07FFCFC000
0FF0EFC000
0FE07FC000
1FC03FC000
3FC01FC000
3F801FC000
3F801FC000
3F800FC000
7F800FC000
7F800FC000
7F800FC000
7F800FC000
7F800FC000
7F800FC000
7F801FC000
3F801FC000
3FC01FC000
3FC03FC000
1FE07FC000
0FF9EFE000
07FFCFFC00
03FF8FFC00
00FE0FFC00
ENDCHAR

STARTCHAR dcroat
ENCODING 240
SWIDTH 667 0
DWIDTH 33 0
BBX 32 37 1 -1
BITMAP
0001FFC0
0001FFC0
00007FC0
00001FC0
00000FC0
00000FC0
000FFFFC
000FFFFC
000FFFFC
00000FC0
00000FC0
00000FC0
00000FC0
00FF0FC0
03FF8FC0
07FFCFC0
0FF0EFC0
1FE07FC0
1FC03FC0
3FC01FC0
3F801FC0
3F800FC0
7F800FC0
7F800FC0
7F800FC0
7F800FC0
7F800FC0
7F800FC0
7F801FC0
3F801FC0
3FC01FC0
3FC03FC0
1FE07FC0
0FF0EFE0
0FFFCFF8
03FF8FFC
00FE0FFC
ENDCHAR

STARTCHAR nacute
ENCODING 241
SWIDTH 685 0
DWIDTH 34 0
BBX 33 35 1 0
BITMAP
000F808000
003FF18000
003FFF8000
007FFF0000
0043FE0000
00407C0000
0000000000
0000000000
0000000000
0000000000
0000000000
00003F0000
3FF0FFC000
3FF1FFE000
07F3FFE000
03F70FF000
03FC07F000
03F807F000
03F803F000
03F803F000
03F003F000
03F003F000
03F003F000
03F003F000
03F003F000
03F003F000
03F003F000
03F003F000
03F003F000
03F003F000
03F003F000
03F003F000
07F807F800
3FFF3FFF00
3FFF3FFF00
ENDCHAR

STARTCHAR ncaron
ENCODING 242
SWIDTH 685 0
DWIDTH 34 0
BBX 33 36 1 0
BITMAP
0060010000
0030070000
00380E0000
001E1E0000
001F7C0000
001FFC0000
000FF80000
000FF80000
0007F00000
0000000000
0000000000
0000000000
00003F0000
3FF0FFC000
3FF1FFE000
07F3FFE000
03F70FF000
03FC07F000
03F807F000
03F803F000
03F803F000
03F003F000
03F003F000
03F003F000
03F003F000
03F003F000
03F003F000
03F003F000
03F003F000
03F003F000
03F003F000
03F003F000
03F003F000
07F807F800
3FFF3FFF00
3FFF3FFF00
ENDCHAR

STARTCHAR oacute
ENCODING 243
SWIDTH 611 0
DWIDTH 31 0
BBX 29 37 1 -1
BITMAP
0000E000
0003F000
0003F000
0007F000
000FE000
001F8000
001E0000
00380000
00200000
00000000
00000000
00000000
003FE000
00FFFC00
03F07E00
07E03F00
0FC01F80
1FC01FC0
1F800FE0
3F800FE0
3F800FE0
3F800FF0
7F800FF0
7F800FF0
7F800FF0
7F800FF0
7F800FF0
3F800FE0
3F800FE0
3F800FE0
1FC00FC0
1FC01FC0
0FC01F80
07E03F00
03F8FE00
00FFF800
003FE000
ENDCHAR

STARTCHAR ocircumflex
ENCODING 244
SWIDTH 611 0
DWIDTH 31 0
BBX 29 37 1 -1
BITMAP
001FE000
003FE000
003FF000
007FF000
0078F800
00F07800
00C01C00
01800C00
01000200
00000000
00000000
00000000
003FE000
00FFFC00
03F07E00
07E03F00
0FC01F80
1FC01FC0
1F800FE0
3F800FE0
3F800FE0
3F800FF0
7F800FF0
7F800FF0
7F800FF0
7F800FF0
7F800FF0
3F800FE0
3F800FE0
3F800FE0
1FC00FC0
1FC01FC0
0FC01F80
07E03F00
03F8FE00
00FFF800
003FE000
ENDCHAR

STARTCHAR ohungarumlaut
ENCODING 245
SWIDTH 611 0
DWIDTH 31 0
BBX 30 37 1 -1
BITMAP
0003C0E0
0007E3F0
000FE3F0
001FE7F0
001FCFE0
003F0FC0
007C1E00
00E03800
00802000
00000000
00000000
00000000
003FE000
00FFFC00
03F07E00
07E03F00
0FC01F80
1FC01FC0
1F800FE0
3F800FE0
3F800FE0
3F800FF0
7F800FF0
7F800FF0
7F800FF0
7F800FF0
7F800FF0
3F800FE0
3F800FE0
3F800FE0
1FC00FC0
1FC01FC0
0FC01F80
07E03F00
03F8FE00
00FFF800
003FE000
ENDCHAR

STARTCHAR odieresis
ENCODING 246
SWIDTH 611 0
DWIDTH 31 0
BBX 29 36 1 -1
BITMAP
00E01C00
01F03E00
03F87F00
03F87F00
03F87F00
01F03E00
00400800
00000000
00000000
00000000
00000000
003FE000
00FFFC00
03F07E00
07E03F00
0FC01F80
1FC01FC0
1F800FE0
3F800FE0
3F800FE0
3F800FF0
7F800FF0
7F800FF0
7F800FF0
7F800FF0
7F800FF0
3F800FE0
3F800FE0
3F800FE0
1FC00FC0
1FC01FC0
0FC01F80
07E03F00
03F8FE00
00FFF800
003FE000
ENDCHAR

STARTCHAR divide
ENCODING 247
SWIDTH 606 0
DWIDTH 30 0
BBX 30 26 0 4
BITMAP
00030000
00078000
000FC000
000FC000
00078000
00030000
00000000
00000000
00000000
00000000
00000000
7FFFFFF8
7FFFFFF8
7FFFFFF8
7FFFFFF8
00000000
00000000
00000000
00000000
00000000
00030000
00078000
000FC000
000FC000
00078000
00030000
ENDCHAR

STARTCHAR rcaron
ENCODING 248
SWIDTH 519 0
DWIDTH 26 0
BBX 26 36 0 0
BITMAP
06001800
03803000
03C0F000
01E1E000
01FBE000
00FFC000
00FFC000
007F8000
007F8000
00000000
00000000
00000000
00307C00
3FF0FE00
3FF19F00
07F31F80
03F61F80
03F61F00
03FC1F00
03FC0E00
03FC0000
03F80000
03F80000
03F80000
03F80000
03F80000
03F80000
03F80000
03F80000
03F80000
03F80000
03F80000
03F80000
03F80000
3FFFC000
3FFFC000
ENDCHAR

STARTCHAR uring
ENCODING 249
SWIDTH 685 0
DWIDTH 34 0
BBX 34 38 0 -1
BITMAP
0001F00000
0007F80000
00073C0000
000E1C0000
000C0C0000
000C0C0000
000E1C0000
00073C0000
0007F80000
0001E00000
0000000000
0000000000
0000000000
03F003F000
3FF03FF000
3FF03FF000
0FF007F000
07F003F000
07F003F000
07F003F000
07F003F000
07F003F000
07F003F000
07F003F000
07F003F000
07F003F000
07F003F000
07F003F000
07F003F000
07F007F000
07F007F000
07F00FF000
03F80FF000
03FC3BF000
03FFF3F800
01FFE3FF00
00FFC3FF00
003F01FF00
ENDCHAR

STARTCHAR uacute
ENCODING 250
SWIDTH 685 0
DWIDTH 34 0
BBX 34 37 0 -1
BITMAP
00007C0000
0000FE0000
0000FE0000
0001FC0000
0003F80000
0003E00000
0007800000
000C000000
0000000000
0000000000
0000000000
0000000000
03F003F000
3FF03FF000
3FF03FF000
0FF007F000
07F003F000
07F003F000
07F003F000
07F003F000
07F003F000
07F003F000
07F003F000
07F003F000
07F003F000
07F003F000
07F003F000
07F003F000
07F007F000
07F007F000
07F00FF000
03F80FF000
03FC3BF000
03FFF3F800
01FFE3FF00
00FFC3FF00
003F01FF00
ENDCHAR

STARTCHAR uhungarumlaut
ENCODING 251
SWIDTH 685 0
DWIDTH 34 0
BBX 34 37 0 -1
BITMAP
0000F03C00
0001F87E00
0003F8FE00
0007F9FC00
0007F3F800
000FC3E000
001E078000
00180E0000
0000000000
0000000000
0000000000
0000000000
03F003F000
3FF03FF000
3FF03FF000
0FF007F000
07F003F000
07F003F000
07F003F000
07F003F000
07F003F000
07F003F000
07F003F000
07F003F000
07F003F000
07F003F000
07F003F000
07F003F000
07F007F000
07F007F000
07F00FF000
03F80FF000
03FC3BF000
03FFF3F800
01FFE3FF00
00FFC3FF00
003F01FF00
ENDCHAR

STARTCHAR udieresis
ENCODING 252
SWIDTH 685 0
DWIDTH 34 0
BBX 34 37 0 -1
BITMAP
0038070000
007C0F8000
00FE1FC000
00FE1FC000
00FE1FC000
007C0F8000
0038070000
0000000000
0000000000
0000000000
0000000000
0000000000
03F003F000
3FF03FF000
3FF03FF000
0FF007F000
07F003F000
07F003F000
07F003F000
07F003F000
07F003F000
07F003F000
07F003F000
07F003F000
07F003F000
07F003F000
07F003F000
07F003F000
07F007F000
07F007F000
07F00FF000
03F80FF000
03FC3BF000
03FFF3F800
01FFE3FF00
00FFC3FF00
003F01FF00
ENDCHAR

STARTCHAR yacute
ENCODING 253
SWIDTH 611 0
DWIDTH 31 0
BBX 32 45 -1 -9
BITMAP
00007800
0000FC00
0001FC00
0003F800
0007F000
0007E000
000F0000
001C0000
00000000
00000000
00000000
00000000
00000000
3FFF0FFC
3FFF0FFC
0FF801F0
07F001E0
03F800C0
03F801C0
01FC0180
01FC0380
00FE0300
00FE0700
007F0600
007F0E00
003F8C00
003F9C00
001FD800
001FF800
000FF000
000FF000
0007E000
0007E000
0003C000
0001C000
00018000
00038000
00030000
1E070000
3F060000
3F0E0000
3F1C0000
3F380000
1FF00000
0FE00000
ENDCHAR

STARTCHAR tcommaaccent
ENCODING 254
SWIDTH 426 0
DWIDTH 21 0
BBX 22 43 0 -11
BITMAP
003000
003000
003000
007000
007000
00F000
00F000
01F000
07F000
3FFFF0
3FFFF0
3FFFF0
03F000
03F000
03F000
03F000
03F000
03F000
03F000
03F000
03F000
03F000
03F000
03F018
03F018
03F038
03F030
03F030
03F870
01FCE0
01FFE0
00FFC0
003F00
000000
000000
007800
00FC00
00FC00
00FC00
000C00
000800
003000
004000
ENDCHAR

STARTCHAR dotaccent
ENCODING 255
SWIDTH 333 0
DWIDTH 17 0
BBX 9 7 4 28
BITMAP
1C00
3E00
7F00
7F00
7F00
3E00
1C00
ENDCHAR
ENDFONT
